<svg width="16" height="16" viewBox="0 0 16 16" fill="none" xmlns="http://www.w3.org/2000/svg">
<path d="M1.33854 3.51073L2.19187 2.66406L13.3385 13.8107L12.4919 14.6641L10.4385 12.6107C9.67188 12.8641 8.85854 12.9974 8.00521 12.9974C4.67188 12.9974 1.82521 10.9241 0.671875 7.9974C1.13188 6.82406 1.86521 5.79073 2.79854 4.97073L1.33854 3.51073ZM8.00521 5.9974C8.53564 5.9974 9.04435 6.20811 9.41942 6.58318C9.7945 6.95825 10.0052 7.46696 10.0052 7.9974C10.0055 8.22444 9.96722 8.44988 9.89188 8.66406L7.33854 6.11073C7.55272 6.03538 7.77816 5.99706 8.00521 5.9974ZM8.00521 2.9974C11.3385 2.9974 14.1852 5.07073 15.3385 7.9974C14.7944 9.37953 13.8698 10.5792 12.6719 11.4574L11.7252 10.5041C12.6471 9.86632 13.3907 9.00343 13.8852 7.9974C13.3462 6.89736 12.5095 5.97058 11.4701 5.3224C10.4306 4.67422 9.23018 4.33065 8.00521 4.33073C7.27854 4.33073 6.56521 4.45073 5.89854 4.66406L4.87188 3.64406C5.83188 3.23073 6.89188 2.9974 8.00521 2.9974ZM2.12521 7.9974C2.66417 9.09744 3.50092 10.0242 4.54036 10.6724C5.5798 11.3206 6.78023 11.6641 8.00521 11.6641C8.46521 11.6641 8.91854 11.6174 9.33854 11.5241L7.81854 9.9974C7.35465 9.94767 6.92176 9.74065 6.59186 9.41075C6.26196 9.08085 6.05493 8.64795 6.00521 8.18406L3.73854 5.91073C3.07854 6.4774 2.52521 7.18406 2.12521 7.9974Z" fill="black"/>
</svg>
