<svg width="16" height="16" viewBox="0 0 16 16" fill="none" xmlns="http://www.w3.org/2000/svg">
<path d="M10.3866 7.99995C10.3866 9.31995 9.31995 10.3866 7.99995 10.3866C6.67995 10.3866 5.61328 9.31995 5.61328 7.99995C5.61328 6.67995 6.67995 5.61328 7.99995 5.61328C9.31995 5.61328 10.3866 6.67995 10.3866 7.99995Z" stroke="#292829" stroke-width="2" stroke-linecap="round" stroke-linejoin="round"/>
<path d="M8.0038 13.5134C10.3571 13.5134 12.5505 12.1268 14.0771 9.72677C14.6771 8.78677 14.6771 7.20677 14.0771 6.26677C12.5505 3.86677 10.3571 2.4801 8.0038 2.4801C5.65047 2.4801 3.45714 3.86677 1.93047 6.26677C1.33047 7.20677 1.33047 8.78677 1.93047 9.72677C3.45714 12.1268 5.65047 13.5134 8.0038 13.5134Z" stroke="#292829" stroke-width="2" stroke-linecap="round" stroke-linejoin="round"/>
</svg>
