<svg width="122" height="62" viewBox="0 0 122 62" fill="none" xmlns="http://www.w3.org/2000/svg">
<g id="Layer_1" clip-path="url(#clip0_1_1166)">
<g id="Group">
<path id="Vector" d="M18.2341 34.4387L17.4736 32.4785H12.9207L12.1602 34.4387H18.2341Z" fill="#1A4681"/>
<path id="Vector_2" d="M54.9975 14.0201C52.716 14.0201 51.3551 12.5077 51.3551 10.239C51.3551 7.97036 52.726 6.61713 54.9975 6.61713C57.269 6.61713 58.6399 7.98031 58.6399 10.239C58.6399 12.4977 57.269 14.0201 54.9975 14.0201ZM54.9975 4.19922C51.3551 4.19922 48.6133 6.76638 48.6133 10.239C48.6133 13.8609 51.3451 16.438 54.9975 16.438C58.6499 16.438 61.3817 13.8709 61.3817 10.239C61.3817 6.60718 58.8 4.19922 54.9975 4.19922Z" fill="#1A4681"/>
<path id="Vector_3" d="M15.5002 14.0195H0V16.4374H15.6503L15.5002 14.0195Z" fill="#1A4681"/>
<path id="Vector_4" d="M68.065 27.6617V36.8757H70.4966V24.9453H67.0044L64.1225 32.1891L61.2306 24.9453H57.7383V36.8757H60.1699V27.3632L60.0198 27.5125L63.2019 36.8757H64.873L68.2151 27.6617H68.065Z" fill="#1A4681"/>
<path id="Vector_5" d="M6.38419 36.8757V27.0548H10.1767V24.9453H0V27.0548H3.95259V36.8757H6.38419Z" fill="#1A4681"/>
<path id="Vector_6" d="M11.8496 36.8757L15.1918 28.398L18.5339 36.8757H21.1256L16.2625 24.9453H14.2812L9.41797 36.8757H11.8496Z" fill="#1A4681"/>
<path id="Vector_7" d="M39.1972 27.0548H44.971V24.9453H36.7656V36.8757H44.971V34.7662H39.1972V31.8906H44.2105V29.7811H39.1972V27.0548Z" fill="#1A4681"/>
<path id="Vector_8" d="M49.83 27.0548H55.3036V24.9453H47.3984V36.8757H55.3036V34.7662H49.83V31.8906H54.6932V29.7811H49.83V27.0548Z" fill="#1A4681"/>
<path id="Vector_9" d="M67.7628 4.49707V14.0195H25.8253L25.375 16.4374H70.4946V4.49707H67.7628Z" fill="#1A4681"/>
<path id="Vector_10" d="M27.6498 34.7659C25.2182 34.7659 23.6972 33.1042 23.6972 30.6863C23.6972 28.4176 25.2182 26.7559 27.6498 26.7559C29.9313 26.7559 31.6024 28.4176 31.6024 30.6863C31.6024 33.1042 29.9313 34.7659 27.6498 34.7659ZM27.6498 24.6465C23.8473 24.6465 21.2656 27.2136 21.2656 30.6863C21.2656 34.3082 23.8473 36.8853 27.6498 36.8853C31.4523 36.8853 34.034 34.3181 34.034 30.6863C34.034 27.2136 31.4523 24.6465 27.6498 24.6465Z" fill="#1A4681"/>
<path id="Vector_11" d="M24.1545 16.4376H26.7362V14.0197H23.6942C22.3233 14.0197 21.5628 13.562 21.2626 12.358C21.2626 12.0595 21.2626 11.7511 21.1125 11.3033C21.1125 11.0048 19.4414 9.6416 19.4414 9.6416V11.9103C19.4414 15.5321 20.5021 16.4376 24.1545 16.4376Z" fill="#1A4681"/>
<path id="Vector_12" d="M42.2396 4.49707H39.5078V15.0742H42.2396V4.49707Z" fill="#1A4681"/>
<path id="Vector_13" d="M31.1419 4.49707H28.4102V15.0742H31.1419V4.49707Z" fill="#1A4681"/>
<path id="Vector_14" d="M27.8086 36.8754H34.6431V35.0645H29.6298L27.8086 36.8754Z" fill="#1A4681"/>
<path id="Vector_15" d="M15.6498 14.0201C13.5184 14.0201 12.0074 12.5077 12.0074 10.239C12.0074 7.97036 13.5284 6.61713 15.6498 6.61713C17.7712 6.61713 19.2922 7.98031 19.2922 10.239C19.2922 12.4977 17.7712 14.0201 15.6498 14.0201ZM15.6498 4.19922C11.8473 4.19922 9.26562 6.76638 9.26562 10.239C9.26562 13.7117 11.8473 16.438 15.6498 16.438C19.4523 16.438 22.034 13.8709 22.034 10.239C22.034 6.76638 19.4523 4.19922 15.6498 4.19922Z" fill="#1A4681"/>
<path id="Vector_16" d="M68.5365 0H65.8047V2.41791H68.5365V0Z" fill="#1A4681"/>
<path id="Vector_17" d="M72.638 0H69.9062V2.41791H72.638V0Z" fill="#1A4681"/>
<path id="Vector_18" d="M54.3177 0H51.5859V2.41791H54.3177V0Z" fill="#1A4681"/>
<path id="Vector_19" d="M58.4193 0H55.6875V2.41791H58.4193V0Z" fill="#1A4681"/>
<path id="Vector_20" d="M40.1849 18.7363H37.4531V21.1542H40.1849V18.7363Z" fill="#1A4681"/>
<path id="Vector_21" d="M44.2903 18.7364H41.5585V21.1543H44.2903V18.7364Z" fill="#1A4681"/>
<path id="Vector_22" d="M29.0873 18.7363H26.3555V21.1542H29.0873V18.7363Z" fill="#1A4681"/>
<path id="Vector_23" d="M33.1927 18.7363H30.4609V21.1542H33.1927V18.7363Z" fill="#1A4681"/>
</g>
<g id="Group_2">
<path id="Vector_24" d="M122 5.583V1.21484C120.679 1.49345 119.358 1.81186 118.057 2.18002C116.386 2.64768 114.725 3.17504 113.094 3.77206C113.594 3.80191 115.565 4.07057 117.737 4.50838C119.188 4.79693 120.729 5.16509 122 5.59295" fill="#1AAC9F"/>
<path id="Vector_25" d="M119.277 0H102.355C103.116 0.179104 104.907 0.835821 106.718 1.58209C108.279 2.22886 109.86 2.93532 110.801 3.48259C111.391 3.14428 112.612 2.54726 114.073 1.9204C115.684 1.21393 117.605 0.477612 119.277 0Z" fill="#1AAC9F"/>
<path id="Vector_26" d="M111.504 5.4919C111.504 5.4919 111.474 5.46205 111.414 5.40234C111.624 9.05409 111.754 12.7655 111.844 16.4272H120.08C117.728 12.4272 114.826 8.75558 111.504 5.48195" fill="#1AAC9F"/>
<path id="Vector_27" d="M108.76 5.01493C108.4 5.09453 108.06 5.16418 107.809 5.21393C102.786 6.31841 97.863 8 93.27 10.2786C92.0391 10.8756 90.3981 11.7811 89.2173 12.4577L87.9064 13.2537L86.7057 11.3433C92.9998 7.39303 100.225 4.88557 107.589 3.8806C107.829 3.85075 108.15 3.81095 108.5 3.77114C100.705 0.676617 94.1005 0 91.4087 0H78.5703V16.4378H98.9837C101.545 12.1095 104.888 8.23881 108.76 5.01493Z" fill="#1AAC9F"/>
<path id="Vector_28" d="M101.504 16.437H109.759C109.839 13.1634 109.959 9.88972 110.11 6.65589C110.11 6.65589 110.15 6.02902 110.18 5.41211C109.449 6.13848 108.679 6.9345 108.078 7.58126C105.577 10.2977 103.365 13.2629 101.504 16.437Z" fill="#1AAC9F"/>
<path id="Vector_29" d="M112.824 5.01367C113.064 5.21268 113.295 5.40173 113.465 5.54104C116.767 8.41666 119.669 11.7699 122 15.4714V7.60074C119.038 6.51616 115.916 5.67039 112.824 5.01367Z" fill="#1AAC9F"/>
<path id="Vector_30" d="M108.531 35.2827C107.75 35.6907 106.81 36.2479 105.789 36.8748H115.676C114.074 35.9096 112.403 34.9842 110.652 34.0986C109.922 34.4867 109.211 34.8847 108.521 35.2827" fill="#1AAC9F"/>
<path id="Vector_31" d="M112.535 33.1449C112.985 33.4136 113.426 33.6822 113.856 33.9609C115.067 34.6474 116.678 35.7121 118.309 36.8763H122.001V29.334C118.609 30.4584 115.417 31.7519 112.535 33.1449Z" fill="#1AAC9F"/>
<path id="Vector_32" d="M110.789 32.138C114.322 30.2475 118.114 28.536 122.007 27.1231V20.4365H78.5781V22.536C90.2158 23.6206 102.124 27.3619 110.799 32.138" fill="#1AAC9F"/>
<path id="Vector_33" d="M108.86 33.2033C101.776 29.7904 93.7903 27.1138 86.1053 25.9397C84.2941 25.5815 81.4622 25.2332 78.5703 24.9844V36.865H103.066C104.878 35.5914 106.819 34.3675 108.87 33.1934" fill="#1AAC9F"/>
</g>
<g id="Group_3">
<path id="Vector_34" d="M2.70969 46.7171L2.18969 46.2296L1.67969 46.7171L2.18969 47.2246L2.70969 46.7171Z" fill="#1A4681"/>
<path id="Vector_35" d="M17.9023 46.6776L18.3126 47.0955L18.7829 46.6279L18.3126 46.1602L17.9023 46.5682L17.482 46.1602L17.0117 46.6279L17.482 47.0955L17.9023 46.6776Z" fill="#1A4681"/>
<path id="Vector_36" d="M36.4947 46.7174L35.9847 46.2298L35.4647 46.7174L35.9847 47.2248L36.4947 46.7174Z" fill="#1A4681"/>
<path id="Vector_37" d="M49.3426 46.7079C49.6028 46.7079 49.7228 46.5885 49.7829 46.4691C49.8629 46.6283 50.033 46.7079 50.2632 46.7079C50.8936 46.7079 50.9636 46.28 50.9636 45.9318C50.9636 45.7228 50.9236 45.4542 50.9236 45.4542L50.5133 45.4741C50.5133 45.4741 50.5534 45.7228 50.5534 45.9218C50.5534 46.081 50.5334 46.2203 50.3232 46.2203C50.1631 46.2203 50.0831 46.2004 50.0831 46.0412V45.6631H49.6528V46.0512C49.6528 46.1606 49.5727 46.2104 49.4126 46.2104C49.2325 46.2104 49.1625 46.1606 49.1625 45.9716C49.1625 45.7626 49.2825 45.4542 49.2825 45.4542H48.8523C48.8523 45.4542 48.7422 45.7427 48.7422 46.0313C48.7422 46.5785 49.0124 46.6979 49.3426 46.6979" fill="#1A4681"/>
<path id="Vector_38" d="M53.615 45.7421L54.0352 46.16L54.5055 45.6923L54.0352 45.2247L53.615 45.6326L53.2047 45.2247L52.7344 45.6923L53.2047 46.16L53.615 45.7421Z" fill="#1A4681"/>
<path id="Vector_39" d="M67.4235 45.4237L67.8338 45.8317L68.3141 45.364L67.8338 44.9063L67.4235 45.3143L67.0033 44.9063L66.543 45.364L67.0033 45.8317L67.4235 45.4237Z" fill="#1A4681"/>
<path id="Vector_40" d="M100.396 45.4237L100.806 45.8317L101.287 45.364L100.806 44.9063L100.396 45.3143L99.9759 44.9063L99.5156 45.364L99.9759 45.8317L100.396 45.4237Z" fill="#1A4681"/>
<path id="Vector_41" d="M111.01 46.5978C110.91 46.6078 110.64 46.6476 110.36 46.6476C110.14 46.6476 110.09 46.6177 110.09 46.4585C110.09 46.2894 110.22 46.2595 110.41 46.2595C110.63 46.2595 110.85 46.3391 110.85 46.3391V45.9013C110.85 45.9013 110.62 45.8018 110.41 45.8018C110.05 45.8018 109.74 46.0207 109.74 46.4685C109.74 46.5978 109.78 46.6874 109.83 46.7272H109.66V47.1949C110.32 47.1451 110.77 47.0854 111.01 47.0456V46.6078V46.5978Z" fill="#1A4681"/>
<g id="Group_4">
<path id="Vector_42" d="M5.01329 50.0904H5.60367C6.54429 50.0904 7.09465 49.4735 7.09465 48.3491C7.09465 48.0406 7.05463 47.6625 6.98458 47.3242H6.35417C6.42421 47.6924 6.46424 48.0506 6.46424 48.3093C6.46424 48.9561 6.24409 49.2347 5.60367 49.2347H5.01329C4.31283 49.2347 4.2728 49.1352 4.21276 48.6576C4.20276 48.4685 4.18274 48.2595 4.15272 48.0506H3.48228C3.55233 48.5879 3.58235 49.0456 3.58235 49.573C3.58235 50.4187 3.22211 50.7969 2.1314 50.7969C1.04068 50.7969 0.650427 50.4884 0.650427 49.5829C0.650427 48.9063 0.93061 48.2595 0.93061 48.2595H0.280184C0.280184 48.2595 0 48.8168 0 49.6128C0 51.0058 0.600394 51.6526 2.07136 51.6526C3.54232 51.6526 4.16273 51.0257 4.24278 49.8416C4.38287 49.9909 4.62303 50.0904 5.01329 50.0904Z" fill="#1A4681"/>
<path id="Vector_43" d="M6.12351 50.967L5.72325 50.5889L5.29297 51.0168L5.72325 51.4546L6.12351 51.0765L6.50376 51.4546L6.94405 51.0168L6.50376 50.5889L6.12351 50.967Z" fill="#1A4681"/>
<path id="Vector_44" d="M26.0164 49.2654C25.486 49.2654 25.2959 49.1659 25.2959 48.8276C25.2959 48.4196 25.6561 48.1609 26.0364 48.1609C26.4667 48.1609 26.6668 48.4196 26.8769 48.8972L26.937 49.0166C26.8269 49.146 26.5567 49.2554 26.0164 49.2554M21.7536 48.9669C21.5134 48.7778 20.9931 48.2007 20.6829 47.8325C20.903 47.7529 21.2632 47.6932 21.7235 47.6932C22.364 47.6932 22.5841 47.8126 22.5841 48.1111C22.5841 48.4096 22.344 48.6783 21.7636 48.9768H21.7536V48.9669ZM14.1886 49.2554C13.6583 49.2554 13.4681 49.1559 13.4681 48.8176C13.4681 48.4096 13.8284 48.1509 14.2086 48.1509C14.6389 48.1509 14.839 48.4096 15.0492 48.8873L15.1092 49.0067C14.9991 49.136 14.729 49.2455 14.1886 49.2455M28.2378 50.0713C29.3285 50.0713 29.7688 49.6136 29.7688 48.2803V44.9669H29.0784V48.5689C29.0784 49.0863 28.9083 49.2156 28.2378 49.2156C27.8476 49.2156 27.6775 49.0266 27.5474 48.7082L27.3773 48.34C27.1371 47.8126 26.8369 47.3151 26.1164 47.3151C25.396 47.3151 24.7555 47.9022 24.7555 48.8475C24.7555 48.9072 24.7555 48.9768 24.7555 49.0365C24.6255 49.1858 24.3853 49.2057 24.0351 49.2057C24.0351 49.2057 22.5841 49.2057 22.354 49.1858C22.9343 48.8176 23.1345 48.4693 23.1345 47.9519C23.1345 47.2057 22.7142 46.8674 21.8036 46.8674C21.1332 46.8674 20.6528 46.9669 20.2726 47.1758L20.1025 48.0415C20.2026 48.2504 20.6629 48.7977 21.0331 49.1858C20.7729 49.2156 20.4327 49.2156 19.8923 49.2156H19.1018C18.4314 49.2156 18.2012 49.0664 18.2012 48.3698V47.6733H17.5808V48.3698C17.5808 49.0564 17.2706 49.2156 16.6002 49.2156C16.2099 49.2156 15.8297 49.0266 15.6896 48.7082L15.5195 48.34C15.2793 47.8126 14.9791 47.3151 14.2587 47.3151C13.5382 47.3151 12.8978 47.9022 12.8978 48.8475C12.8978 48.9072 12.8978 48.9768 12.8978 49.0365C12.7777 49.1858 12.5275 49.2057 12.1873 49.2057H11.4468C10.8464 49.2057 10.7063 49.0863 10.4462 48.1907L9.94582 46.4793H9.20534L9.82575 48.5191C9.86577 48.6683 9.9058 48.7878 9.94582 48.9171C9.84576 49.0962 9.61561 49.2355 8.96518 49.2355C8.0746 49.2355 7.73438 49.0465 7.73438 49.0465V49.8624C7.73438 49.8624 8.0746 50.1012 8.88513 50.1012C9.63562 50.1012 10.0059 49.8524 10.176 49.4544C10.4261 49.8922 10.7664 50.0713 11.4368 50.0713H12.1773C12.7176 50.0713 12.9478 49.8823 13.0479 49.5838C13.218 49.9022 13.5582 50.0912 14.0985 50.0912C14.769 50.0912 15.1292 49.8325 15.2693 49.4246C15.4594 49.7927 15.9698 50.0614 16.5902 50.0614C17.2806 50.0614 17.7409 49.8524 17.861 49.4146C17.9811 49.8524 18.3814 50.0614 19.0818 50.0614H19.8223C20.5027 50.0614 21.1031 50.0116 21.6235 49.6932C22.0938 50.0216 22.7943 50.0614 23.6348 50.0614H24.005C24.5454 50.0614 24.7756 49.8723 24.8756 49.5738C25.0457 49.8922 25.386 50.0813 25.9263 50.0813C26.5967 50.0813 26.957 49.8226 27.0971 49.4146C27.2872 49.7828 27.5874 50.0514 28.1978 50.0514L28.2378 50.0713Z" fill="#1A4681"/>
<path id="Vector_45" d="M31.69 44.9962H31V50.0907H31.69V44.9962Z" fill="#1A4681"/>
<path id="Vector_46" d="M42.9286 51.0564L42.4683 50.5987L42.0581 51.0067L41.6478 50.5987L41.1875 51.0564L41.6478 51.5241L42.0581 51.1161L42.4683 51.5241L42.9286 51.0564Z" fill="#1A4681"/>
<path id="Vector_47" d="M50.2535 51.5241L50.7238 51.0564L50.2535 50.5987L49.8432 51.0067L49.433 50.5987L48.9727 51.0564L49.433 51.5241L49.8432 51.1161L50.2535 51.5241Z" fill="#1A4681"/>
<path id="Vector_48" d="M57.7787 49.2654C57.2483 49.2654 57.0582 49.1659 57.0582 48.8276C57.0582 48.4196 57.4185 48.1609 57.7987 48.1609C58.229 48.1609 58.4291 48.4196 58.6393 48.8972L58.6993 49.0266C58.5892 49.1559 58.3191 49.2654 57.7787 49.2654ZM53.646 48.9669C53.1056 48.7579 52.9555 48.5689 52.9555 48.2106C52.9555 47.7728 53.2157 47.544 53.646 47.544C54.0763 47.544 54.3364 47.7728 54.3364 48.2106C54.3364 48.5589 54.1863 48.748 53.656 48.9669M45.8108 49.2654C45.2805 49.2654 45.0904 49.1659 45.0904 48.8276C45.0904 48.4196 45.4506 48.1609 45.8309 48.1609C46.2611 48.1609 46.4613 48.4196 46.6714 48.8972L46.7315 49.0266C46.6214 49.1559 46.3512 49.2654 45.8108 49.2654ZM51.9749 50.0813C52.8154 50.0813 53.2858 49.9221 53.596 49.733C53.9162 49.9022 54.3264 50.0813 55.2771 50.0813H55.8074C56.3478 50.0813 56.5779 49.8922 56.678 49.5937C56.8481 49.9121 57.1883 50.1012 57.7287 50.1012C58.3991 50.1012 58.7593 49.8425 58.8994 49.4345C59.0896 49.8027 59.3898 50.0713 60.0002 50.0713C60.6406 50.0713 61.0508 49.9121 61.281 49.5141C61.4311 49.8823 61.7913 50.0713 62.4017 50.0713C63.4924 50.0713 63.9327 49.6037 63.9327 48.2803V44.9669H63.2423V48.5689C63.2423 49.0863 63.0722 49.2156 62.4017 49.2156C61.7313 49.2156 61.5312 49.0465 61.5312 48.3201V44.9669H60.8407V48.5689C60.8407 49.0863 60.6706 49.2156 60.0002 49.2156C59.6099 49.2156 59.4398 49.0266 59.3097 48.7082L59.1396 48.34C58.8994 47.8126 58.5992 47.3151 57.8788 47.3151C57.1583 47.3151 56.5179 47.9022 56.5179 48.8475C56.5179 48.9072 56.5179 48.9669 56.5179 49.0365C56.3878 49.1858 56.1476 49.2057 55.7974 49.2057H55.267C54.8868 49.2057 54.6466 49.1957 54.3965 49.1659C54.7467 48.9271 54.8868 48.5987 54.8868 48.141C54.8868 47.2256 54.3965 46.7082 53.646 46.7082C52.8955 46.7082 52.4052 47.2355 52.4052 48.141C52.4052 48.5987 52.5353 48.9271 52.8955 49.1659C52.6353 49.1957 52.3852 49.2156 51.9849 49.2156H51.3445C50.674 49.2156 50.1837 49.0664 50.1837 48.3698V47.6733H49.5633V48.3698C49.5633 49.0564 49.3332 49.2156 48.6627 49.2156H48.0323C47.642 49.2156 47.4719 49.0266 47.3419 48.7082L47.1717 48.34C46.9316 47.8126 46.6314 47.3151 45.9109 47.3151C45.1904 47.3151 44.55 47.9022 44.55 48.8475C44.55 48.9072 44.55 48.9669 44.55 49.0365C44.4299 49.1858 44.1798 49.2057 43.8396 49.2057H43.2992C42.6288 49.2057 42.3986 49.0564 42.3986 48.3599V47.6634H41.7782V48.3599C41.7782 49.0465 41.538 49.2057 40.8676 49.2057H38.8163C38.1158 49.2057 38.0758 49.1062 38.0157 48.6285C38.0057 48.4395 37.9857 48.2305 37.9557 48.0216H37.2853C37.3553 48.5589 37.3853 49.0166 37.3853 49.544C37.3853 50.3897 37.0251 50.7679 35.9344 50.7679C34.8437 50.7679 34.4534 50.4594 34.4534 49.5539C34.4534 48.8773 34.7336 48.2305 34.7336 48.2305H34.0732C34.0732 48.2305 33.793 48.7878 33.793 49.5937C33.793 50.9868 34.3934 51.6335 35.8643 51.6335C37.3353 51.6335 37.9557 51.0067 38.0357 49.8226C38.1758 49.9718 38.416 50.0713 38.8063 50.0713H40.8576C41.5481 50.0713 41.9383 49.8624 42.0584 49.4246C42.1785 49.8624 42.5787 50.0713 43.2792 50.0713H43.8195C44.3599 50.0713 44.59 49.8823 44.6901 49.5838C44.8602 49.9022 45.2004 50.0912 45.7408 50.0912C46.4112 50.0912 46.7715 49.8325 46.9116 49.4246C47.1017 49.7927 47.4019 50.0614 48.0123 50.0614H48.6427C49.3332 50.0614 49.7034 49.8524 49.8335 49.4146C49.9636 49.8524 50.614 50.0614 51.3145 50.0614" fill="#1A4681"/>
<path id="Vector_49" d="M67.9547 48.4282C67.8546 48.5376 67.6145 48.5973 67.2542 48.5973C66.7939 48.5973 66.5838 48.4779 66.5838 48.2093C66.5838 47.9108 66.934 47.7018 67.9547 47.4133V48.4182V48.4282ZM70.7866 47.3237C70.8566 47.6919 70.8966 48.0501 70.8966 48.3088C70.8966 48.9556 70.6765 49.2342 70.0361 49.2342H69.3856C68.7552 49.2342 68.6051 49.0551 68.6051 48.3187V46.2491H67.9547V46.7068C66.4837 47.1148 66.0234 47.5725 66.0234 48.3187C66.0234 49.0053 66.3036 49.463 67.1041 49.463C67.6145 49.463 67.8847 49.264 67.9947 48.9456C68.1048 49.6819 68.5151 50.0899 69.3956 50.0899H70.0461C70.9867 50.0899 71.537 49.473 71.537 48.3486C71.537 48.0401 71.497 47.662 71.427 47.3237H70.7966H70.7866Z" fill="#1A4681"/>
<path id="Vector_50" d="M70.5571 50.967L70.1669 50.5889L69.7266 51.0168L70.1669 51.4546L70.5571 51.0765L70.9474 51.4546L71.3876 51.0168L70.9474 50.5889L70.5571 50.967Z" fill="#1A4681"/>
<path id="Vector_51" d="M75.0806 48.6887C75.0806 47.843 74.5503 47.1564 73.3195 46.5196L72.9993 47.2957C74.07 47.8529 74.5103 48.231 74.5103 48.7285C74.5103 49.1166 74.2001 49.2559 73.4496 49.2559C72.6991 49.2559 72.2688 49.0967 72.2188 49.0669V49.8828C72.2188 49.8828 72.559 50.1216 73.3695 50.1216C74.5403 50.1216 75.0906 49.6738 75.0906 48.6887" fill="#1A4681"/>
<path id="Vector_52" d="M84.6561 48.9766C84.4159 48.7876 83.8956 48.2105 83.5854 47.8423C83.8055 47.7627 84.1657 47.703 84.626 47.703C85.2665 47.703 85.4866 47.8224 85.4866 48.1209C85.4866 48.4194 85.2464 48.6881 84.6661 48.9866H84.6561V48.9766ZM77.9116 49.2652H77.1011C76.5908 49.2652 76.4207 49.1557 76.4207 48.8473C76.4207 48.4891 76.7108 48.2304 77.1411 48.2304C77.7415 48.2304 77.9016 48.7876 77.9016 49.1159V49.2652H77.9116ZM92.2811 49.5736C92.4412 49.9318 92.8414 50.0811 93.4518 50.0811C94.5425 50.0811 94.9828 49.6134 94.9828 48.2901V44.9766H94.2924V48.5786C94.2924 49.096 94.1223 49.2254 93.4518 49.2254C92.7814 49.2254 92.5812 49.0562 92.5812 48.6284V47.9119H91.9608V48.6284C91.9608 49.0761 91.8107 49.2254 91.4005 49.2254C90.9702 49.2254 90.8301 49.0761 90.8301 48.6085V47.902H90.2097V48.6085C90.2097 49.0761 90.0296 49.2254 89.5092 49.2254C89.0189 49.2254 88.8388 49.0662 88.8388 48.6085V47.902H88.2184V48.6184C88.2184 49.106 88.0383 49.2154 87.3078 49.2154H86.3472C85.8268 49.2154 85.4966 49.2154 85.2765 49.1955C85.8568 48.8274 86.057 48.4791 86.057 47.9617C86.057 47.2154 85.6367 46.8771 84.7261 46.8771C84.0557 46.8771 83.5753 46.9766 83.1951 47.1856L83.025 48.0513C83.1251 48.2602 83.5854 48.8075 83.9556 49.1955C83.6954 49.2254 83.3552 49.2254 82.8148 49.2254H78.442V49.1955C78.442 48.2403 78.0717 47.4144 77.1812 47.4144C76.3706 47.4144 75.8703 48.0811 75.8703 48.907C75.8703 49.6333 76.2205 50.0512 77.011 50.0512H77.8716C77.7215 50.6781 77.2312 50.9368 76.5407 50.9368C76.0704 50.9368 75.7002 50.7776 75.6602 50.7478V51.5239C75.6602 51.5239 76.0104 51.7627 76.6008 51.7627C77.5714 51.7627 78.1918 51.1159 78.3819 50.0911H82.6447H82.7448C83.4252 50.0911 84.0256 50.0413 84.546 49.7229C85.0163 50.0513 85.4966 50.0911 86.3372 50.0911H87.2778C87.9182 50.0911 88.2884 49.9318 88.4485 49.5736C88.5786 49.9318 88.8888 50.0911 89.4392 50.0911C89.9895 50.0911 90.2998 49.9119 90.4499 49.5935C90.5799 49.9318 90.8701 50.0911 91.3605 50.0911C91.8107 50.0911 92.1209 49.902 92.261 49.5836" fill="#1A4681"/>
<path id="Vector_53" d="M96.9048 44.9962H96.2148V50.0907H96.9048V44.9962Z" fill="#1A4681"/>
<path id="Vector_54" d="M113.486 51.5241L113.956 51.0564L113.486 50.5987L113.075 51.0067L112.665 50.5987L112.215 51.0564L112.665 51.5241L113.075 51.1161L113.486 51.5241Z" fill="#1A4681"/>
<path id="Vector_55" d="M116.88 50.9665C116.219 50.9665 115.909 50.5884 115.869 49.9914H116.569C117.4 49.9914 117.61 50.1705 117.61 50.4988C117.61 50.7675 117.34 50.9665 116.88 50.9665ZM115.859 49.2152C115.859 48.2799 116.139 47.9018 116.619 47.9018C117.06 47.9018 117.22 48.2501 117.22 48.6978C117.22 49.265 116.739 49.2749 116.069 49.2749H115.849V49.2152H115.859ZM100.939 48.4391C100.839 48.5486 100.599 48.6083 100.239 48.6083C99.7783 48.6083 99.5682 48.4889 99.5682 48.2202C99.5682 47.9217 99.9184 47.7128 100.939 47.4242V48.4292V48.4391ZM120.092 48.2998V44.9864H119.401V48.5884C119.401 49.1058 119.231 49.2351 118.561 49.2351H117.63C117.73 49.1058 117.79 48.9068 117.79 48.5983C117.79 47.7924 117.43 47.0759 116.669 47.0759C115.859 47.0759 115.319 47.8322 115.319 49.2053V49.2252H114.318C113.647 49.2252 113.417 49.0759 113.417 48.3794V47.6829H112.797V48.3794C112.797 49.066 112.417 49.2252 111.736 49.2252C111.056 49.2252 110.695 49.0759 110.695 48.3794V47.6829H110.075V48.3794C110.075 49.066 109.835 49.2252 109.164 49.2252H102.37C101.74 49.2252 101.589 49.0461 101.589 48.3098V46.2401H100.939V46.6978C99.4681 47.1058 99.0078 47.5635 99.0078 48.3098C99.0078 48.9963 99.288 49.4541 100.089 49.4541C100.599 49.4541 100.869 49.255 100.979 48.9366C101.089 49.673 101.499 50.0809 102.37 50.0809H109.164C109.855 50.0809 110.245 49.872 110.365 49.4342C110.485 49.872 111.036 50.0809 111.736 50.0809C112.437 50.0809 112.957 49.872 113.087 49.4342C113.207 49.872 113.607 50.0809 114.308 50.0809H115.319C115.379 51.1555 115.879 51.7824 116.86 51.7824C117.68 51.7824 118.17 51.265 118.17 50.5486C118.17 50.3595 118.12 50.2003 118.02 50.0809H118.561C119.651 50.0809 120.092 49.6133 120.092 48.2899" fill="#1A4681"/>
<path id="Vector_56" d="M121.999 44.9962H121.309V50.0907H121.999V44.9962Z" fill="#1A4681"/>
<path id="Vector_57" d="M2.15141 57.4943L1.74114 57.4445C1.05069 57.3549 0.830545 57.1957 0.830545 56.6783C0.830545 56.1311 1.20079 55.8724 1.89124 55.8724C2.42159 55.8724 2.93192 56.0614 3.38222 56.3699V55.554C3.00197 55.2952 2.47162 55.1659 1.86122 55.1659C0.850558 55.1659 0 55.6734 0 56.6883C0 57.544 0.510335 58.0316 1.35089 58.141L1.78117 58.2007C2.52165 58.2903 2.79183 58.4594 2.79183 59.0067C2.79183 59.5241 2.39157 59.8425 1.71112 59.8425C1.09072 59.8425 0.540354 59.6535 0.0400262 59.3351V60.151C0.550361 60.4296 1.05069 60.549 1.64108 60.549C2.7418 60.549 3.62238 60.0316 3.62238 58.9669C3.62238 58.0415 3.04199 57.6137 2.1414 57.5042" fill="#1A4681"/>
<path id="Vector_58" d="M6.5742 59.1261C6.54418 59.7729 6.06386 59.952 5.63358 59.952C5.2033 59.952 5.00317 59.7928 5.00317 59.4644C5.00317 59.0366 5.2033 58.9072 5.84372 58.9072H6.5742V59.1261ZM5.80369 56.6485C5.12325 56.6485 4.76301 56.7978 4.43279 57.0465V57.7828C4.83306 57.4545 5.17328 57.345 5.65359 57.345C6.43411 57.345 6.5742 57.6734 6.5742 58.2704V58.3201H5.80369C4.743 58.3201 4.22266 58.6684 4.22266 59.4843C4.22266 60.1609 4.64293 60.5689 5.47348 60.5689C5.9638 60.5689 6.33404 60.3997 6.5742 60.0614V60.4694H7.36472V58.151C7.36472 57.0963 6.95445 56.6485 5.80369 56.6485Z" fill="#1A4681"/>
<path id="Vector_59" d="M10.8159 58.8975C10.7958 59.5145 10.4156 59.8528 9.92527 59.8528C9.47497 59.8528 9.11474 59.6239 9.11474 58.9473V56.7483H8.32422V59.0369C8.32422 60.002 8.79453 60.5592 9.69512 60.5592C10.2155 60.5592 10.5657 60.3503 10.8058 60.012V60.4597H11.5964V56.7383H10.8058V58.8876L10.8159 58.8975Z" fill="#1A4681"/>
<path id="Vector_60" d="M15.13 58.9266C15.11 59.454 14.7097 59.9117 14.1794 59.9117C13.649 59.9117 13.2988 59.5435 13.2988 58.8868V58.3296C13.2988 57.6629 13.649 57.2947 14.1994 57.2947C14.6497 57.2947 15.07 57.6629 15.14 58.1903V58.9266H15.13ZM15.13 57.2052C14.8899 56.8768 14.5296 56.648 14.0093 56.648C12.9986 56.648 12.4883 57.3445 12.4883 58.3694V58.8569C12.4883 59.9515 13.0186 60.5783 14.0093 60.5783C14.5296 60.5783 14.8798 60.3196 15.13 59.9614V60.4689H15.9205V55.2549H15.13V57.2052Z" fill="#1A4681"/>
<path id="Vector_61" d="M17.7714 55.2169H16.9414V56.0427H17.7714V55.2169Z" fill="#1A4681"/>
<path id="Vector_62" d="M17.7509 56.7481H16.9609V60.4695H17.7509V56.7481Z" fill="#1A4681"/>
<path id="Vector_63" d="M21.0115 58.5586L21.842 56.2004L22.6225 58.5586H21.0215H21.0115ZM21.4418 55.2452L19.4805 60.4591H20.341L20.7613 59.2551H22.8527L23.2529 60.4591H24.2036L22.3323 55.2452H21.4418Z" fill="#1A4681"/>
<path id="Vector_64" d="M27.2182 58.8975C27.1982 59.5145 26.8179 59.8528 26.3276 59.8528C25.8773 59.8528 25.5171 59.6239 25.5171 58.9473V56.7483H24.7266V59.0369C24.7266 60.002 25.1969 60.5592 26.0975 60.5592C26.6178 60.5592 26.968 60.3503 27.2082 60.012V60.4597H27.9987V56.7383H27.2082V58.8876L27.2182 58.8975Z" fill="#1A4681"/>
<path id="Vector_65" d="M30.1202 59.196V57.3851H31.0608V56.7483H30.1202V55.6339H29.3296V56.7483H28.6992V57.3851H29.3296V59.2856C29.3296 60.0916 29.7099 60.5791 30.5504 60.5791C30.7706 60.5791 31.0007 60.5493 31.1408 60.5095V59.8428C31.0207 59.8727 30.8206 59.8926 30.6805 59.8926C30.2602 59.8926 30.1202 59.7035 30.1202 59.196Z" fill="#1A4681"/>
<path id="Vector_66" d="M33.8207 56.648C33.2903 56.648 32.9001 56.8669 32.6499 57.2251V55.2549H31.8594V60.4689H32.6499V58.3196C32.6699 57.7027 33.0702 57.3644 33.5605 57.3644C34.0108 57.3644 34.371 57.643 34.371 58.3196V60.4589H35.1615V58.1704C35.1615 57.2052 34.7213 56.648 33.8107 56.648" fill="#1A4681"/>
<path id="Vector_67" d="M38.6341 58.8576C38.6341 59.5442 38.2639 59.9124 37.7135 59.9124C37.1631 59.9124 36.7929 59.5442 36.7929 58.8576V58.3601C36.7929 57.6736 37.1531 57.2954 37.7135 57.2954C38.2739 57.2954 38.6341 57.6736 38.6341 58.3601V58.8576ZM37.7135 56.6487C36.7529 56.6487 35.9924 57.2357 35.9924 58.38V58.8377C35.9924 59.982 36.7529 60.5691 37.7135 60.5691C38.6741 60.5691 39.4346 59.982 39.4346 58.8377V58.38C39.4346 57.2357 38.6741 56.6487 37.7135 56.6487Z" fill="#1A4681"/>
<path id="Vector_68" d="M41.1069 57.3154V56.7382H40.3164V60.4596H41.1069V58.5293C41.1269 57.8726 41.5572 57.395 42.0976 57.395C42.1576 57.395 42.2177 57.395 42.2677 57.4049V56.6387C41.7373 56.6387 41.3571 56.9173 41.1069 57.3054" fill="#1A4681"/>
<path id="Vector_69" d="M43.7275 56.7481H42.9375V60.4695H43.7275V56.7481Z" fill="#1A4681"/>
<path id="Vector_70" d="M43.748 55.2169H42.918V56.0427H43.748V55.2169Z" fill="#1A4681"/>
<path id="Vector_71" d="M45.8311 59.196V57.3851H46.7717V56.7483H45.8311V55.6339H45.0406V56.7483H44.4102V57.3851H45.0406V59.2856C45.0406 60.0916 45.4208 60.5791 46.2614 60.5791C46.4815 60.5791 46.7117 60.5493 46.8518 60.5095V59.8428C46.7317 59.8727 46.5315 59.8926 46.3915 59.8926C45.9712 59.8926 45.8311 59.7035 45.8311 59.196Z" fill="#1A4681"/>
<path id="Vector_72" d="M49.0431 59.6635L48.0124 56.7481H47.1719L48.6528 60.6287L48.1525 62.0018H48.9831L49.4834 60.4695H49.4934L50.8943 56.7481H50.0738L49.0431 59.6635Z" fill="#1A4681"/>
<path id="Vector_73" d="M55.3566 58.8575C55.3566 59.544 54.9863 59.9122 54.436 59.9122C53.8856 59.9122 53.5154 59.544 53.5154 58.8575V58.3599C53.5154 57.6734 53.8756 57.2953 54.436 57.2953C54.9963 57.2953 55.3566 57.6734 55.3566 58.3599V58.8575ZM54.436 56.6485C53.4753 56.6485 52.7148 57.2356 52.7148 58.3798V58.8376C52.7148 59.9818 53.4753 60.5689 54.436 60.5689C55.3966 60.5689 56.1571 59.9818 56.1571 58.8376V58.3798C56.1571 57.2356 55.3966 56.6485 54.436 56.6485Z" fill="#1A4681"/>
<path id="Vector_74" d="M62.0193 58.5586L62.8498 56.2004L63.6303 58.5586H62.0293H62.0193ZM62.4496 55.2452L60.4883 60.4591H61.3488L61.7691 59.2551H63.8605L64.2608 60.4591H65.2114L63.3401 55.2452H62.4496Z" fill="#1A4681"/>
<path id="Vector_75" d="M65.625 58.38V58.8377C65.625 59.9124 66.2754 60.5691 67.3461 60.5691C67.8264 60.5691 68.2167 60.4497 68.4969 60.2606V59.5741C68.0966 59.8228 67.7564 59.9024 67.4062 59.9024C66.7958 59.9024 66.4355 59.5343 66.4355 58.8676V58.3502C66.4355 57.6537 66.8058 57.3054 67.4262 57.3054C67.7764 57.3054 68.1467 57.385 68.5169 57.6338V56.8875C68.1867 56.7084 67.7964 56.6387 67.4062 56.6387C66.2054 56.6387 65.635 57.3651 65.635 58.3701" fill="#1A4681"/>
<path id="Vector_76" d="M69.1758 58.38V58.8377C69.1758 59.9124 69.8262 60.5691 70.8969 60.5691C71.3772 60.5691 71.7675 60.4497 72.0477 60.2606V59.5741C71.6474 59.8228 71.3072 59.9024 70.957 59.9024C70.3466 59.9024 69.9863 59.5343 69.9863 58.8676V58.3502C69.9863 57.6537 70.3566 57.3054 70.977 57.3054C71.3272 57.3054 71.6974 57.385 72.0677 57.6338V56.8875C71.7375 56.7084 71.3572 56.6387 70.957 56.6387C69.7562 56.6387 69.1858 57.3651 69.1858 58.3701" fill="#1A4681"/>
<path id="Vector_77" d="M73.6772 57.3154V56.7382H72.8867V60.4596H73.6772V58.5293C73.6973 57.8726 74.1275 57.395 74.6679 57.395C74.7279 57.395 74.788 57.395 74.838 57.4049V56.6387C74.3077 56.6387 73.9274 56.9173 73.6772 57.3054" fill="#1A4681"/>
<path id="Vector_78" d="M77.8315 58.3201H76.1404C76.1404 57.6634 76.4506 57.2953 76.9909 57.2953C77.5313 57.2953 77.8415 57.6236 77.8415 58.3002V58.3201H77.8315ZM76.9809 56.6485C76.0203 56.6485 75.3398 57.3052 75.3398 58.3798V58.8376C75.3398 59.9619 76.0403 60.5689 77.111 60.5689C77.7114 60.5689 78.1017 60.4793 78.5419 60.2405V59.5838C78.0516 59.8624 77.6914 59.9022 77.2111 59.9022C76.5807 59.9022 76.1504 59.5739 76.1304 58.9172H78.622V58.3301C78.622 57.1958 77.9315 56.6485 76.9709 56.6485" fill="#1A4681"/>
<path id="Vector_79" d="M81.9738 58.9266C81.9537 59.454 81.5535 59.9117 81.0231 59.9117C80.4928 59.9117 80.1426 59.5435 80.1426 58.8868V58.3296C80.1426 57.6629 80.4928 57.2947 81.0432 57.2947C81.4934 57.2947 81.9137 57.6629 81.9838 58.1903V58.9266H81.9738ZM81.9738 57.2052C81.7336 56.8768 81.3734 56.648 80.853 56.648C79.8424 56.648 79.332 57.3445 79.332 58.3694V58.8569C79.332 59.9515 79.8624 60.5783 80.853 60.5783C81.3734 60.5783 81.7236 60.3196 81.9738 59.9614V60.4689H82.7643V55.2549H81.9738V57.2052Z" fill="#1A4681"/>
<path id="Vector_80" d="M84.5947 56.7481H83.8047V60.4695H84.5947V56.7481Z" fill="#1A4681"/>
<path id="Vector_81" d="M84.6152 55.2169H83.7852V56.0427H84.6152V55.2169Z" fill="#1A4681"/>
<path id="Vector_82" d="M86.7061 59.196V57.3851H87.6467V56.7483H86.7061V55.6339H85.9156V56.7483H85.2852V57.3851H85.9156V59.2856C85.9156 60.0916 86.2958 60.5791 87.1364 60.5791C87.3565 60.5791 87.5867 60.5493 87.7268 60.5095V59.8428C87.6067 59.8727 87.4065 59.8926 87.2665 59.8926C86.8462 59.8926 86.7061 59.7035 86.7061 59.196Z" fill="#1A4681"/>
<path id="Vector_83" d="M90.769 58.3201H89.0779C89.0779 57.6634 89.3881 57.2953 89.9284 57.2953C90.4688 57.2953 90.779 57.6236 90.779 58.3002V58.3201H90.769ZM89.9184 56.6485C88.9578 56.6485 88.2773 57.3052 88.2773 58.3798V58.8376C88.2773 59.9619 88.9778 60.5689 90.0485 60.5689C90.6489 60.5689 91.0392 60.4793 91.4794 60.2405V59.5838C90.9891 59.8624 90.6289 59.9022 90.1486 59.9022C89.5182 59.9022 89.0879 59.5739 89.0679 58.9172H91.5595V58.3301C91.5595 57.1958 90.869 56.6485 89.9084 56.6485" fill="#1A4681"/>
<path id="Vector_84" d="M94.8995 58.9266C94.8795 59.454 94.4793 59.9117 93.9489 59.9117C93.4186 59.9117 93.0683 59.5435 93.0683 58.8868V58.3296C93.0683 57.6629 93.4186 57.2947 93.9689 57.2947C94.4192 57.2947 94.8395 57.6629 94.9096 58.1903V58.9266H94.8995ZM94.8995 57.2052C94.6594 56.8768 94.2992 56.648 93.7788 56.648C92.7682 56.648 92.2578 57.3445 92.2578 58.3694V58.8569C92.2578 59.9515 92.7882 60.5783 93.7788 60.5783C94.2992 60.5783 94.6494 60.3196 94.8995 59.9614V60.4689H95.6901V55.2549H94.8995V57.2052Z" fill="#1A4681"/>
<path id="Vector_85" d="M99.7744 59.4838L98.4636 55.2549H97.543L99.2841 60.4689H100.165L102.026 55.2549H101.155L99.7744 59.4838Z" fill="#1A4681"/>
<path id="Vector_86" d="M104.41 59.1261C104.38 59.7729 103.9 59.952 103.47 59.952C103.039 59.952 102.839 59.7928 102.839 59.4644C102.839 59.0366 103.039 58.9072 103.68 58.9072H104.41V59.1261ZM103.64 56.6485C102.959 56.6485 102.599 56.7978 102.269 57.0465V57.7828C102.669 57.4545 103.009 57.345 103.49 57.345C104.27 57.345 104.41 57.6734 104.41 58.2704V58.3201H103.64C102.579 58.3201 102.059 58.6684 102.059 59.4843C102.059 60.1609 102.479 60.5689 103.309 60.5689C103.8 60.5689 104.17 60.3997 104.41 60.0614V60.4694H105.201V58.151C105.201 57.0963 104.79 56.6485 103.64 56.6485Z" fill="#1A4681"/>
<path id="Vector_87" d="M106.97 59.3246V55.2549H106.18V59.4639C106.18 60.2102 106.44 60.5684 107.18 60.5684C107.36 60.5684 107.55 60.5286 107.67 60.4888V59.8321C107.59 59.8619 107.48 59.8918 107.32 59.8918C107.04 59.8918 106.97 59.7425 106.97 59.3146" fill="#1A4681"/>
<path id="Vector_88" d="M110.753 58.8975C110.733 59.5145 110.353 59.8528 109.863 59.8528C109.412 59.8528 109.052 59.6239 109.052 58.9473V56.7483H108.262V59.0369C108.262 60.002 108.732 60.5592 109.633 60.5592C110.153 60.5592 110.503 60.3503 110.743 60.012V60.4597H111.534V56.7383H110.743V58.8876L110.753 58.8975Z" fill="#1A4681"/>
<path id="Vector_89" d="M114.906 58.3201H113.215C113.215 57.6634 113.525 57.2953 114.065 57.2953C114.606 57.2953 114.916 57.6236 114.916 58.3002V58.3201H114.906ZM114.055 56.6485C113.095 56.6485 112.414 57.3052 112.414 58.3798V58.8376C112.414 59.9619 113.115 60.5689 114.185 60.5689C114.786 60.5689 115.176 60.4793 115.616 60.2405V59.5838C115.126 59.8624 114.766 59.9022 114.285 59.9022C113.655 59.9022 113.225 59.5739 113.205 58.9172H115.696V58.3301C115.696 57.1958 115.006 56.6485 114.045 56.6485" fill="#1A4681"/>
<path id="Vector_90" d="M117.369 57.3154V56.7382H116.578V60.4596H117.369V58.5293C117.389 57.8726 117.819 57.395 118.359 57.395C118.419 57.395 118.479 57.395 118.529 57.4049V56.6387C117.999 56.6387 117.619 56.9173 117.369 57.3054" fill="#1A4681"/>
<path id="Vector_91" d="M120.858 58.2704L120.418 58.2306C120.048 58.2007 119.718 58.141 119.718 57.7928C119.718 57.4644 119.998 57.3052 120.508 57.3052C120.898 57.3052 121.409 57.4346 121.819 57.6634V56.9271C121.499 56.758 120.998 56.6485 120.448 56.6485C119.698 56.6485 118.957 57.0167 118.957 57.7928C118.957 58.5689 119.517 58.8475 120.108 58.8873L120.528 58.9271C120.948 58.947 121.219 59.0764 121.219 59.4246C121.219 59.7729 120.878 59.9221 120.378 59.9221C119.878 59.9221 119.437 59.7729 119.007 59.5739V60.2903C119.347 60.4694 119.928 60.5788 120.348 60.5788C121.108 60.5788 121.979 60.2405 121.979 59.3749C121.979 58.6186 121.499 58.35 120.838 58.2903" fill="#1A4681"/>
<path id="Vector_92" d="M57.2984 56.319V56.6374H56.668V57.2742H57.2984V60.4682H58.0889V57.2742H59.0295V56.6374H58.0889V56.4085C58.0889 55.9011 58.229 55.712 58.6493 55.712C58.7894 55.712 58.9895 55.722 59.1096 55.7618V55.0951C58.9695 55.0653 58.7393 55.0255 58.5192 55.0255C57.6786 55.0255 57.2984 55.513 57.2984 56.319Z" fill="#1A4681"/>
</g>
</g>
</g>
<defs>
<clipPath id="clip0_1_1166">
<rect width="122" height="62" fill="white"/>
</clipPath>
</defs>
</svg>
