<svg width="122" height="64" viewBox="0 0 122 64" fill="none" xmlns="http://www.w3.org/2000/svg">
<g id="Layer_1" clip-path="url(#clip0_1_1365)">
<g id="Group">
<path id="Vector" d="M18.3003 35.4546L17.5403 33.4846H12.9903L12.2303 35.4546H18.3003Z" fill="white"/>
<path id="Vector_2" d="M55.04 14.9347C52.76 14.9347 51.4 13.4147 51.4 11.1347C51.4 8.8547 52.77 7.4947 55.04 7.4947C57.31 7.4947 58.68 8.8647 58.68 11.1347C58.68 13.4047 57.31 14.9347 55.04 14.9347ZM55.04 5.0647C51.4 5.0647 48.66 7.6447 48.66 11.1347C48.66 14.7747 51.39 17.3647 55.04 17.3647C58.69 17.3647 61.42 14.7847 61.42 11.1347C61.42 7.4847 58.84 5.0647 55.04 5.0647Z" fill="white"/>
<path id="Vector_3" d="M15.57 14.935H0.0799561V17.365H15.72L15.57 14.935Z" fill="white"/>
<path id="Vector_4" d="M68.1001 28.6453V37.9053H70.5301V25.9153H67.0401L64.1602 33.1953L61.2701 25.9153H57.7802V37.9053H60.2102V28.3453L60.0602 28.4953L63.2402 37.9053H64.9102L68.2501 28.6453H68.1001Z" fill="white"/>
<path id="Vector_5" d="M6.45996 37.9053V28.0353H10.25V25.9153H0.0799561V28.0353H4.02996V37.9053H6.45996Z" fill="white"/>
<path id="Vector_6" d="M11.9201 37.9053L15.2601 29.3853L18.6001 37.9053H21.1901L16.3301 25.9153H14.3501L9.49011 37.9053H11.9201Z" fill="white"/>
<path id="Vector_7" d="M39.2502 28.0353H45.0202V25.9153H36.8202V37.9053H45.0202V35.7853H39.2502V32.8953H44.2602V30.7753H39.2502V28.0353Z" fill="white"/>
<path id="Vector_8" d="M49.8801 28.0353H55.3501V25.9153H47.4501V37.9053H55.3501V35.7853H49.8801V32.8953H54.7401V30.7753H49.8801V28.0353Z" fill="white"/>
<path id="Vector_9" d="M67.8003 5.3645V14.9345H25.8903L25.4403 17.3645H70.5303V5.3645H67.8003Z" fill="white"/>
<path id="Vector_10" d="M27.71 35.7845C25.28 35.7845 23.76 34.1145 23.76 31.6845C23.76 29.4045 25.28 27.7345 27.71 27.7345C29.99 27.7345 31.66 29.4045 31.66 31.6845C31.66 34.1145 29.99 35.7845 27.71 35.7845ZM27.71 25.6145C23.91 25.6145 21.33 28.1945 21.33 31.6845C21.33 35.3245 23.91 37.9145 27.71 37.9145C31.51 37.9145 34.09 35.3345 34.09 31.6845C34.09 28.1945 31.51 25.6145 27.71 25.6145Z" fill="white"/>
<path id="Vector_11" d="M24.2196 17.3654H26.7996V14.9354H23.7596C22.3896 14.9354 21.6296 14.4754 21.3296 13.2654C21.3296 12.9654 21.3296 12.6554 21.1796 12.2054C21.1796 11.9054 19.5096 10.5354 19.5096 10.5354V12.8154C19.5096 16.4554 20.5696 17.3654 24.2196 17.3654Z" fill="white"/>
<path id="Vector_12" d="M42.2904 5.3645H39.5604V15.9945H42.2904V5.3645Z" fill="white"/>
<path id="Vector_13" d="M31.1996 5.3645H28.4696V15.9945H31.1996V5.3645Z" fill="white"/>
<path id="Vector_14" d="M27.8699 37.905H34.6999V36.085H29.6899L27.8699 37.905Z" fill="white"/>
<path id="Vector_15" d="M15.7197 14.9347C13.5897 14.9347 12.0797 13.4147 12.0797 11.1347C12.0797 8.8547 13.5997 7.4947 15.7197 7.4947C17.8397 7.4947 19.3597 8.8647 19.3597 11.1347C19.3597 13.4047 17.8397 14.9347 15.7197 14.9347ZM15.7197 5.0647C11.9197 5.0647 9.33972 7.6447 9.33972 11.1347C9.33972 14.6247 11.9197 17.3647 15.7197 17.3647C19.5197 17.3647 22.0997 14.7847 22.0997 11.1347C22.0997 7.6447 19.5197 5.0647 15.7197 5.0647Z" fill="white"/>
<path id="Vector_16" d="M68.57 0.844971H65.84V3.27497H68.57V0.844971Z" fill="white"/>
<path id="Vector_17" d="M72.6703 0.844971H69.9403V3.27497H72.6703V0.844971Z" fill="white"/>
<path id="Vector_18" d="M54.3599 0.844971H51.6299V3.27497H54.3599V0.844971Z" fill="white"/>
<path id="Vector_19" d="M58.4603 0.844971H55.7303V3.27497H58.4603V0.844971Z" fill="white"/>
<path id="Vector_20" d="M40.2396 19.675H37.5096V22.105H40.2396V19.675Z" fill="white"/>
<path id="Vector_21" d="M44.3402 19.675H41.6102V22.105H44.3402V19.675Z" fill="white"/>
<path id="Vector_22" d="M29.15 19.675H26.42V22.105H29.15V19.675Z" fill="white"/>
<path id="Vector_23" d="M33.2504 19.675H30.5204V22.105H33.2504V19.675Z" fill="white"/>
</g>
<g id="Group_2">
<path id="Vector_24" d="M121.999 6.4547V2.0647C120.679 2.3447 119.359 2.6647 118.059 3.0347C116.389 3.5047 114.729 4.0347 113.099 4.6347C113.599 4.6647 115.569 4.9347 117.739 5.3747C119.189 5.6647 120.729 6.0347 121.999 6.4647" fill="#1AAC9F"/>
<path id="Vector_25" d="M119.279 0.844971H102.369C103.129 1.02497 104.919 1.68497 106.729 2.43497C108.289 3.08497 109.869 3.79497 110.809 4.34497C111.399 4.00497 112.619 3.40497 114.079 2.77497C115.689 2.06497 117.609 1.32497 119.279 0.844971Z" fill="#1AAC9F"/>
<path id="Vector_26" d="M111.51 6.36466C111.51 6.36466 111.48 6.33466 111.42 6.27466C111.63 9.94466 111.76 13.6747 111.85 17.3547H120.08C117.73 13.3347 114.83 9.64466 111.51 6.35466" fill="#1AAC9F"/>
<path id="Vector_27" d="M108.769 5.88497C108.409 5.96497 108.069 6.03497 107.819 6.08497C102.799 7.19497 97.8795 8.88497 93.2895 11.175C92.0595 11.775 90.4195 12.685 89.2395 13.365L87.9295 14.165L86.7295 12.245C93.0195 8.27497 100.239 5.75497 107.599 4.74497C107.839 4.71497 108.159 4.67497 108.509 4.63497C100.719 1.52497 94.1195 0.844971 91.4295 0.844971H78.5995V17.365H98.9995C101.559 13.015 104.899 9.12497 108.769 5.88497Z" fill="#1AAC9F"/>
<path id="Vector_28" d="M101.519 17.3654H109.769C109.849 14.0754 109.969 10.7854 110.119 7.5354C110.119 7.5354 110.159 6.9054 110.189 6.2854C109.459 7.0154 108.689 7.8154 108.089 8.4654C105.589 11.1954 103.379 14.1754 101.519 17.3654Z" fill="#1AAC9F"/>
<path id="Vector_29" d="M112.83 5.88501C113.07 6.08501 113.3 6.27501 113.47 6.41501C116.77 9.30501 119.67 12.675 122 16.395V8.48501C119.04 7.39501 115.92 6.54501 112.83 5.88501Z" fill="#1AAC9F"/>
<path id="Vector_30" d="M108.54 36.3045C107.76 36.7145 106.82 37.2745 105.8 37.9045H115.68C114.08 36.9345 112.41 36.0045 110.66 35.1145C109.93 35.5045 109.22 35.9045 108.53 36.3045" fill="#1AAC9F"/>
<path id="Vector_31" d="M112.54 34.1554C112.99 34.4254 113.43 34.6954 113.86 34.9754C115.07 35.6654 116.68 36.7354 118.31 37.9054H122V30.3254C118.61 31.4554 115.42 32.7554 112.54 34.1554Z" fill="#1AAC9F"/>
<path id="Vector_32" d="M110.799 33.1449C114.329 31.2449 118.119 29.5249 122.009 28.1049V21.3849H78.6095V23.4949C90.2395 24.5849 102.14 28.3449 110.81 33.1449" fill="#1AAC9F"/>
<path id="Vector_33" d="M108.869 34.2153C101.789 30.7853 93.8095 28.0953 86.1295 26.9153C84.3195 26.5553 81.4895 26.2053 78.5995 25.9553V37.8953H103.079C104.889 36.6153 106.829 35.3853 108.879 34.2053" fill="#1AAC9F"/>
</g>
<g id="Group_3">
<path id="Vector_34" d="M2.78964 47.7951L2.26964 47.3051L1.75964 47.7951L2.26964 48.3051L2.78964 47.7951Z" fill="white"/>
<path id="Vector_35" d="M17.97 47.755L18.38 48.175L18.85 47.705L18.38 47.235L17.97 47.645L17.55 47.235L17.08 47.705L17.55 48.175L17.97 47.755Z" fill="white"/>
<path id="Vector_36" d="M36.5504 47.7951L36.0404 47.3051L35.5204 47.7951L36.0404 48.3051L36.5504 47.7951Z" fill="white"/>
<path id="Vector_37" d="M49.39 47.785C49.65 47.785 49.77 47.665 49.83 47.545C49.91 47.705 50.08 47.785 50.31 47.785C50.94 47.785 51.01 47.355 51.01 47.005C51.01 46.795 50.97 46.525 50.97 46.525L50.56 46.545C50.56 46.545 50.6 46.795 50.6 46.995C50.6 47.155 50.58 47.295 50.37 47.295C50.21 47.295 50.13 47.275 50.13 47.115V46.735H49.7V47.125C49.7 47.235 49.62 47.285 49.46 47.285C49.28 47.285 49.21 47.235 49.21 47.045C49.21 46.835 49.33 46.525 49.33 46.525H48.9C48.9 46.525 48.79 46.815 48.79 47.105C48.79 47.655 49.06 47.775 49.39 47.775" fill="white"/>
<path id="Vector_38" d="M53.6602 46.8153L54.0802 47.2353L54.5502 46.7653L54.0802 46.2953L53.6602 46.7053L53.2501 46.2953L52.7802 46.7653L53.2501 47.2353L53.6602 46.8153Z" fill="white"/>
<path id="Vector_39" d="M67.46 46.495L67.87 46.905L68.35 46.435L67.87 45.975L67.46 46.385L67.04 45.975L66.58 46.435L67.04 46.905L67.46 46.495Z" fill="white"/>
<path id="Vector_40" d="M100.41 46.495L100.82 46.905L101.3 46.435L100.82 45.975L100.41 46.385L99.99 45.975L99.53 46.435L99.99 46.905L100.41 46.495Z" fill="white"/>
<path id="Vector_41" d="M111.02 47.6754C110.92 47.6854 110.65 47.7254 110.37 47.7254C110.15 47.7254 110.1 47.6954 110.1 47.5354C110.1 47.3654 110.23 47.3354 110.42 47.3354C110.64 47.3354 110.86 47.4154 110.86 47.4154V46.9754C110.86 46.9754 110.63 46.8754 110.42 46.8754C110.06 46.8754 109.75 47.0954 109.75 47.5454C109.75 47.6754 109.79 47.7654 109.84 47.8054H109.67V48.2754C110.33 48.2254 110.78 48.1654 111.02 48.1254V47.6854V47.6754Z" fill="white"/>
<g id="Group_4">
<path id="Vector_42" d="M5.08996 51.1845H5.67996C6.61996 51.1845 7.16996 50.5645 7.16996 49.4345C7.16996 49.1245 7.12996 48.7445 7.05996 48.4045H6.42996C6.49996 48.7745 6.53996 49.1345 6.53996 49.3945C6.53996 50.0445 6.31996 50.3245 5.67996 50.3245H5.08996C4.38996 50.3245 4.34996 50.2245 4.28996 49.7445C4.27996 49.5545 4.25996 49.3445 4.22996 49.1345H3.55996C3.62996 49.6745 3.65996 50.1345 3.65996 50.6645C3.65996 51.5145 3.29996 51.8945 2.20996 51.8945C1.11996 51.8945 0.729956 51.5845 0.729956 50.6745C0.729956 49.9945 1.00996 49.3445 1.00996 49.3445H0.359956C0.359956 49.3445 0.0799561 49.9045 0.0799561 50.7045C0.0799561 52.1045 0.679956 52.7545 2.14996 52.7545C3.61996 52.7545 4.23996 52.1245 4.31996 50.9345C4.45996 51.0845 4.69996 51.1845 5.08996 51.1845Z" fill="white"/>
<path id="Vector_43" d="M6.2 52.0649L5.79999 51.6849L5.37 52.1149L5.79999 52.5549L6.2 52.1749L6.58 52.5549L7.02 52.1149L6.58 51.6849L6.2 52.0649Z" fill="white"/>
<path id="Vector_44" d="M26.0804 50.3545C25.5504 50.3545 25.3604 50.2545 25.3604 49.9145C25.3604 49.5045 25.7204 49.2445 26.1004 49.2445C26.5304 49.2445 26.7304 49.5045 26.9404 49.9845L27.0004 50.1045C26.8904 50.2345 26.6204 50.3445 26.0804 50.3445M21.8204 50.0545C21.5804 49.8645 21.0604 49.2845 20.7504 48.9145C20.9704 48.8345 21.3304 48.7745 21.7904 48.7745C22.4304 48.7745 22.6504 48.8945 22.6504 49.1945C22.6504 49.4945 22.4104 49.7645 21.8304 50.0645H21.8204V50.0545ZM14.2604 50.3445C13.7304 50.3445 13.5404 50.2445 13.5404 49.9045C13.5404 49.4945 13.9004 49.2345 14.2804 49.2345C14.7104 49.2345 14.9104 49.4945 15.1204 49.9745L15.1804 50.0945C15.0704 50.2245 14.8004 50.3345 14.2604 50.3345M28.3004 51.1645C29.3904 51.1645 29.8304 50.7045 29.8304 49.3645V46.0345H29.1404V49.6545C29.1404 50.1745 28.9704 50.3045 28.3004 50.3045C27.9104 50.3045 27.7404 50.1145 27.6104 49.7945L27.4404 49.4245C27.2004 48.8945 26.9004 48.3945 26.1804 48.3945C25.4604 48.3945 24.8204 48.9845 24.8204 49.9345C24.8204 49.9945 24.8204 50.0645 24.8204 50.1245C24.6904 50.2745 24.4504 50.2945 24.1004 50.2945C24.1004 50.2945 22.6504 50.2945 22.4204 50.2745C23.0004 49.9045 23.2004 49.5545 23.2004 49.0345C23.2004 48.2845 22.7804 47.9445 21.8704 47.9445C21.2004 47.9445 20.7204 48.0445 20.3404 48.2545L20.1704 49.1245C20.2704 49.3345 20.7304 49.8845 21.1004 50.2745C20.8404 50.3045 20.5004 50.3045 19.9604 50.3045H19.1704C18.5004 50.3045 18.2704 50.1545 18.2704 49.4545V48.7545H17.6504V49.4545C17.6504 50.1445 17.3404 50.3045 16.6704 50.3045C16.2804 50.3045 15.9004 50.1145 15.7604 49.7945L15.5904 49.4245C15.3504 48.8945 15.0504 48.3945 14.3304 48.3945C13.6104 48.3945 12.9704 48.9845 12.9704 49.9345C12.9704 49.9945 12.9704 50.0645 12.9704 50.1245C12.8504 50.2745 12.6004 50.2945 12.2604 50.2945H11.5204C10.9204 50.2945 10.7804 50.1745 10.5204 49.2745L10.0204 47.5545H9.28042L9.90042 49.6045C9.94042 49.7545 9.98042 49.8745 10.0204 50.0045C9.92042 50.1845 9.69042 50.3245 9.04042 50.3245C8.15042 50.3245 7.81042 50.1345 7.81042 50.1345V50.9545C7.81042 50.9545 8.15042 51.1945 8.96042 51.1945C9.71042 51.1945 10.0804 50.9445 10.2504 50.5445C10.5004 50.9845 10.8404 51.1645 11.5104 51.1645H12.2504C12.7904 51.1645 13.0204 50.9745 13.1204 50.6745C13.2904 50.9945 13.6304 51.1845 14.1704 51.1845C14.8404 51.1845 15.2004 50.9245 15.3404 50.5145C15.5304 50.8845 16.0404 51.1545 16.6604 51.1545C17.3504 51.1545 17.8104 50.9445 17.9304 50.5045C18.0504 50.9445 18.4504 51.1545 19.1504 51.1545H19.8904C20.5704 51.1545 21.1704 51.1045 21.6904 50.7845C22.1604 51.1145 22.8604 51.1545 23.7004 51.1545H24.0704C24.6104 51.1545 24.8404 50.9645 24.9404 50.6645C25.1104 50.9845 25.4504 51.1745 25.9904 51.1745C26.6604 51.1745 27.0204 50.9145 27.1604 50.5045C27.3504 50.8745 27.6504 51.1445 28.2604 51.1445L28.3004 51.1645Z" fill="white"/>
<path id="Vector_45" d="M31.7504 46.0648H31.0604V51.1848H31.7504V46.0648Z" fill="white"/>
<path id="Vector_46" d="M42.9799 52.1545L42.5199 51.6945L42.1099 52.1045L41.6999 51.6945L41.2399 52.1545L41.6999 52.6245L42.1099 52.2145L42.5199 52.6245L42.9799 52.1545Z" fill="white"/>
<path id="Vector_47" d="M50.3004 52.6247L50.7704 52.1547L50.3004 51.6947L49.8904 52.1047L49.4804 51.6947L49.0204 52.1547L49.4804 52.6247L49.8904 52.2147L50.3004 52.6247Z" fill="white"/>
<path id="Vector_48" d="M57.8195 50.3545C57.2895 50.3545 57.0995 50.2545 57.0995 49.9145C57.0995 49.5045 57.4595 49.2445 57.8395 49.2445C58.2695 49.2445 58.4695 49.5045 58.6795 49.9845L58.7395 50.1145C58.6295 50.2445 58.3595 50.3545 57.8195 50.3545ZM53.6895 50.0545C53.1495 49.8445 52.9995 49.6545 52.9995 49.2945C52.9995 48.8545 53.2595 48.6245 53.6895 48.6245C54.1195 48.6245 54.3795 48.8545 54.3795 49.2945C54.3795 49.6445 54.2295 49.8345 53.6995 50.0545M45.8595 50.3545C45.3295 50.3545 45.1395 50.2545 45.1395 49.9145C45.1395 49.5045 45.4995 49.2445 45.8795 49.2445C46.3095 49.2445 46.5095 49.5045 46.7195 49.9845L46.7795 50.1145C46.6695 50.2445 46.3995 50.3545 45.8595 50.3545ZM52.0195 51.1745C52.8595 51.1745 53.3295 51.0145 53.6395 50.8245C53.9595 50.9945 54.3695 51.1745 55.3195 51.1745H55.8495C56.3895 51.1745 56.6195 50.9845 56.7195 50.6845C56.8895 51.0045 57.2295 51.1945 57.7695 51.1945C58.4395 51.1945 58.7995 50.9345 58.9395 50.5245C59.1295 50.8945 59.4295 51.1645 60.0395 51.1645C60.6795 51.1645 61.0895 51.0045 61.3195 50.6045C61.4695 50.9745 61.8295 51.1645 62.4395 51.1645C63.5295 51.1645 63.9695 50.6945 63.9695 49.3645V46.0345H63.2795V49.6545C63.2795 50.1745 63.1095 50.3045 62.4395 50.3045C61.7695 50.3045 61.5695 50.1345 61.5695 49.4045V46.0345H60.8795V49.6545C60.8795 50.1745 60.7095 50.3045 60.0395 50.3045C59.6495 50.3045 59.4795 50.1145 59.3495 49.7945L59.1795 49.4245C58.9395 48.8945 58.6395 48.3945 57.9195 48.3945C57.1995 48.3945 56.5595 48.9845 56.5595 49.9345C56.5595 49.9945 56.5595 50.0545 56.5595 50.1245C56.4295 50.2745 56.1895 50.2945 55.8395 50.2945H55.3095C54.9295 50.2945 54.6895 50.2845 54.4395 50.2545C54.7895 50.0145 54.9295 49.6845 54.9295 49.2245C54.9295 48.3045 54.4395 47.7845 53.6895 47.7845C52.9395 47.7845 52.4495 48.3145 52.4495 49.2245C52.4495 49.6845 52.5795 50.0145 52.9395 50.2545C52.6795 50.2845 52.4295 50.3045 52.0295 50.3045H51.3895C50.7195 50.3045 50.2295 50.1545 50.2295 49.4545V48.7545H49.6095V49.4545C49.6095 50.1445 49.3795 50.3045 48.7095 50.3045H48.0795C47.6895 50.3045 47.5195 50.1145 47.3895 49.7945L47.2195 49.4245C46.9795 48.8945 46.6795 48.3945 45.9595 48.3945C45.2395 48.3945 44.5995 48.9845 44.5995 49.9345C44.5995 49.9945 44.5995 50.0545 44.5995 50.1245C44.4795 50.2745 44.2295 50.2945 43.8895 50.2945H43.3495C42.6795 50.2945 42.4495 50.1445 42.4495 49.4445V48.7445H41.8295V49.4445C41.8295 50.1345 41.5895 50.2945 40.9195 50.2945H38.8695C38.1695 50.2945 38.1295 50.1945 38.0695 49.7145C38.0595 49.5245 38.0395 49.3145 38.0095 49.1045H37.3395C37.4095 49.6445 37.4395 50.1045 37.4395 50.6345C37.4395 51.4845 37.0795 51.8645 35.9895 51.8645C34.8995 51.8645 34.5095 51.5545 34.5095 50.6445C34.5095 49.9645 34.7895 49.3145 34.7895 49.3145H34.1295C34.1295 49.3145 33.8495 49.8745 33.8495 50.6845C33.8495 52.0845 34.4495 52.7345 35.9195 52.7345C37.3895 52.7345 38.0095 52.1045 38.0895 50.9145C38.2295 51.0645 38.4695 51.1645 38.8595 51.1645H40.9095C41.5995 51.1645 41.9895 50.9545 42.1095 50.5145C42.2295 50.9545 42.6295 51.1645 43.3295 51.1645H43.8695C44.4095 51.1645 44.6395 50.9745 44.7395 50.6745C44.9095 50.9945 45.2495 51.1845 45.7895 51.1845C46.4595 51.1845 46.8195 50.9245 46.9595 50.5145C47.1495 50.8845 47.4495 51.1545 48.0595 51.1545H48.6895C49.3795 51.1545 49.7495 50.9445 49.8795 50.5045C50.0095 50.9445 50.6595 51.1545 51.3595 51.1545" fill="white"/>
<path id="Vector_49" d="M67.9904 49.5146C67.8904 49.6246 67.6504 49.6846 67.2904 49.6846C66.8304 49.6846 66.6204 49.5646 66.6204 49.2946C66.6204 48.9946 66.9704 48.7846 67.9904 48.4946V49.5046V49.5146ZM70.8204 48.4046C70.8904 48.7746 70.9304 49.1346 70.9304 49.3946C70.9304 50.0446 70.7104 50.3246 70.0704 50.3246H69.4204C68.7904 50.3246 68.6404 50.1446 68.6404 49.4046V47.3246H67.9904V47.7846C66.5204 48.1946 66.0604 48.6546 66.0604 49.4046C66.0604 50.0946 66.3404 50.5546 67.1404 50.5546C67.6504 50.5546 67.9204 50.3546 68.0304 50.0346C68.1404 50.7746 68.5504 51.1846 69.4304 51.1846H70.0804C71.0204 51.1846 71.5704 50.5646 71.5704 49.4346C71.5704 49.1246 71.5304 48.7446 71.4604 48.4046H70.8304H70.8204Z" fill="white"/>
<path id="Vector_50" d="M70.5896 52.0649L70.1996 51.6849L69.7596 52.1149L70.1996 52.5549L70.5896 52.1749L70.9796 52.5549L71.4196 52.1149L70.9796 51.6849L70.5896 52.0649Z" fill="white"/>
<path id="Vector_51" d="M75.1099 49.7741C75.1099 48.9241 74.5799 48.2341 73.3499 47.5941L73.0299 48.3741C74.0999 48.9341 74.5399 49.3141 74.5399 49.8141C74.5399 50.2041 74.2299 50.3441 73.4799 50.3441C72.7299 50.3441 72.2999 50.1841 72.2499 50.1541V50.9741C72.2499 50.9741 72.5899 51.2141 73.3999 51.2141C74.5699 51.2141 75.1199 50.7641 75.1199 49.7741" fill="white"/>
<path id="Vector_52" d="M84.6803 50.0643C84.4403 49.8743 83.9203 49.2943 83.6103 48.9243C83.8303 48.8443 84.1903 48.7843 84.6503 48.7843C85.2903 48.7843 85.5103 48.9043 85.5103 49.2043C85.5103 49.5043 85.2703 49.7743 84.6903 50.0743H84.6803V50.0643ZM77.9403 50.3543H77.1303C76.6203 50.3543 76.4503 50.2443 76.4503 49.9343C76.4503 49.5743 76.7403 49.3143 77.1703 49.3143C77.7703 49.3143 77.9303 49.8743 77.9303 50.2043V50.3543H77.9403ZM92.3003 50.6643C92.4603 51.0243 92.8603 51.1743 93.4703 51.1743C94.5603 51.1743 95.0003 50.7043 95.0003 49.3743V46.0443H94.3103V49.6643C94.3103 50.1843 94.1403 50.3143 93.4703 50.3143C92.8003 50.3143 92.6003 50.1443 92.6003 49.7143V48.9943H91.9803V49.7143C91.9803 50.1643 91.8303 50.3143 91.4203 50.3143C90.9903 50.3143 90.8503 50.1643 90.8503 49.6943V48.9843H90.2303V49.6943C90.2303 50.1643 90.0503 50.3143 89.5303 50.3143C89.0403 50.3143 88.8603 50.1543 88.8603 49.6943V48.9843H88.2403V49.7043C88.2403 50.1943 88.0603 50.3043 87.3303 50.3043H86.3703C85.8503 50.3043 85.5203 50.3043 85.3003 50.2843C85.8803 49.9143 86.0803 49.5643 86.0803 49.0443C86.0803 48.2943 85.6603 47.9543 84.7503 47.9543C84.0803 47.9543 83.6003 48.0543 83.2203 48.2643L83.0503 49.1343C83.1503 49.3443 83.6103 49.8943 83.9803 50.2843C83.7203 50.3143 83.3803 50.3143 82.8403 50.3143H78.4703V50.2843C78.4703 49.3243 78.1003 48.4943 77.2103 48.4943C76.4003 48.4943 75.9003 49.1643 75.9003 49.9943C75.9003 50.7243 76.2503 51.1443 77.0403 51.1443H77.9003C77.7503 51.7743 77.2603 52.0343 76.5703 52.0343C76.1003 52.0343 75.7303 51.8743 75.6903 51.8443V52.6243C75.6903 52.6243 76.0403 52.8643 76.6303 52.8643C77.6003 52.8643 78.2203 52.2143 78.4103 51.1843H82.6703H82.7703C83.4503 51.1843 84.0503 51.1343 84.5703 50.8143C85.0403 51.1443 85.5203 51.1843 86.3603 51.1843H87.3003C87.9403 51.1843 88.3103 51.0243 88.4703 50.6643C88.6003 51.0243 88.9103 51.1843 89.4603 51.1843C90.0103 51.1843 90.3203 51.0043 90.4703 50.6843C90.6003 51.0243 90.8903 51.1843 91.3803 51.1843C91.8303 51.1843 92.1403 50.9943 92.2803 50.6743" fill="white"/>
<path id="Vector_53" d="M96.9203 46.0648H96.2303V51.1848H96.9203V46.0648Z" fill="white"/>
<path id="Vector_54" d="M113.49 52.6247L113.96 52.1547L113.49 51.6947L113.08 52.1047L112.67 51.6947L112.22 52.1547L112.67 52.6247L113.08 52.2147L113.49 52.6247Z" fill="white"/>
<path id="Vector_55" d="M116.88 52.0641C116.22 52.0641 115.91 51.6841 115.87 51.0841H116.57C117.4 51.0841 117.61 51.2641 117.61 51.5941C117.61 51.8641 117.34 52.0641 116.88 52.0641ZM115.86 50.3041C115.86 49.3641 116.14 48.9841 116.62 48.9841C117.06 48.9841 117.22 49.3341 117.22 49.7841C117.22 50.3541 116.74 50.3641 116.07 50.3641H115.85V50.3041H115.86ZM100.95 49.5241C100.85 49.6341 100.61 49.6941 100.25 49.6941C99.7904 49.6941 99.5804 49.5741 99.5804 49.3041C99.5804 49.0041 99.9304 48.7941 100.95 48.5041V49.5141V49.5241ZM120.09 49.3841V46.0541H119.4V49.6741C119.4 50.1941 119.23 50.3241 118.56 50.3241H117.63C117.73 50.1941 117.79 49.9941 117.79 49.6841C117.79 48.8741 117.43 48.1541 116.67 48.1541C115.86 48.1541 115.32 48.9141 115.32 50.2941V50.3141H114.32C113.65 50.3141 113.42 50.1641 113.42 49.4641V48.7641H112.8V49.4641C112.8 50.1541 112.42 50.3141 111.74 50.3141C111.06 50.3141 110.7 50.1641 110.7 49.4641V48.7641H110.08V49.4641C110.08 50.1541 109.84 50.3141 109.17 50.3141H102.38C101.75 50.3141 101.6 50.1341 101.6 49.3941V47.3141H100.95V47.7741C99.4804 48.1841 99.0204 48.6441 99.0204 49.3941C99.0204 50.0841 99.3004 50.5441 100.1 50.5441C100.61 50.5441 100.88 50.3441 100.99 50.0241C101.1 50.7641 101.51 51.1741 102.38 51.1741H109.17C109.86 51.1741 110.25 50.9641 110.37 50.5241C110.49 50.9641 111.04 51.1741 111.74 51.1741C112.44 51.1741 112.96 50.9641 113.09 50.5241C113.21 50.9641 113.61 51.1741 114.31 51.1741H115.32C115.38 52.2541 115.88 52.8841 116.86 52.8841C117.68 52.8841 118.17 52.3641 118.17 51.6441C118.17 51.4541 118.12 51.2941 118.02 51.1741H118.56C119.65 51.1741 120.09 50.7041 120.09 49.3741" fill="white"/>
<path id="Vector_56" d="M122 46.0648H121.31V51.1848H122V46.0648Z" fill="white"/>
<path id="Vector_57" d="M2.22996 58.6245L1.81996 58.5745C1.12996 58.4845 0.909956 58.3245 0.909956 57.8045C0.909956 57.2545 1.27996 56.9945 1.96996 56.9945C2.49996 56.9945 3.00996 57.1845 3.45996 57.4945V56.6745C3.07996 56.4145 2.54996 56.2845 1.93996 56.2845C0.929956 56.2845 0.0799561 56.7945 0.0799561 57.8145C0.0799561 58.6745 0.589956 59.1645 1.42996 59.2745L1.85996 59.3345C2.59996 59.4245 2.86996 59.5945 2.86996 60.1445C2.86996 60.6645 2.46996 60.9845 1.78996 60.9845C1.16996 60.9845 0.619956 60.7945 0.119956 60.4745V61.2945C0.629956 61.5745 1.12996 61.6945 1.71996 61.6945C2.81996 61.6945 3.69996 61.1745 3.69996 60.1045C3.69996 59.1745 3.11996 58.7445 2.21996 58.6345" fill="white"/>
<path id="Vector_58" d="M6.64968 60.2648C6.61968 60.9148 6.13968 61.0948 5.70968 61.0948C5.27968 61.0948 5.07968 60.9348 5.07968 60.6048C5.07968 60.1748 5.27968 60.0448 5.91968 60.0448H6.64968V60.2648ZM5.87968 57.7748C5.19968 57.7748 4.83968 57.9248 4.50968 58.1748V58.9148C4.90968 58.5848 5.24968 58.4748 5.72968 58.4748C6.50968 58.4748 6.64968 58.8048 6.64968 59.4048V59.4548H5.87968C4.81968 59.4548 4.29968 59.8048 4.29968 60.6248C4.29968 61.3048 4.71968 61.7148 5.54968 61.7148C6.03968 61.7148 6.40968 61.5448 6.64968 61.2048V61.6148H7.43968V59.2848C7.43968 58.2248 7.02968 57.7748 5.87968 57.7748Z" fill="white"/>
<path id="Vector_59" d="M10.8903 60.0346C10.8703 60.6546 10.4903 60.9946 10.0003 60.9946C9.55027 60.9946 9.19027 60.7646 9.19027 60.0846V57.8746H8.40027V60.1746C8.40027 61.1446 8.87027 61.7046 9.77027 61.7046C10.2903 61.7046 10.6403 61.4946 10.8803 61.1546V61.6046H11.6703V57.8646H10.8803V60.0246L10.8903 60.0346Z" fill="white"/>
<path id="Vector_60" d="M15.2004 60.0644C15.1804 60.5944 14.7804 61.0544 14.2504 61.0544C13.7204 61.0544 13.3704 60.6844 13.3704 60.0244V59.4644C13.3704 58.7944 13.7204 58.4244 14.2704 58.4244C14.7204 58.4244 15.1404 58.7944 15.2104 59.3244V60.0644H15.2004ZM15.2004 58.3344C14.9604 58.0044 14.6004 57.7744 14.0804 57.7744C13.0704 57.7744 12.5604 58.4744 12.5604 59.5044V59.9944C12.5604 61.0944 13.0904 61.7244 14.0804 61.7244C14.6004 61.7244 14.9504 61.4644 15.2004 61.1044V61.6144H15.9904V56.3744H15.2004V58.3344Z" fill="white"/>
<path id="Vector_61" d="M17.8396 56.3344H17.0096V57.1643H17.8396V56.3344Z" fill="white"/>
<path id="Vector_62" d="M17.82 57.8746H17.03V61.6146H17.82V57.8746Z" fill="white"/>
<path id="Vector_63" d="M21.0797 59.6946L21.9097 57.3246L22.6897 59.6946H21.0897H21.0797ZM21.5097 56.3646L19.5497 61.6046H20.4097L20.8297 60.3946H22.9197L23.3197 61.6046H24.2697L22.3997 56.3646H21.5097Z" fill="white"/>
<path id="Vector_64" d="M27.28 60.0346C27.26 60.6546 26.88 60.9946 26.39 60.9946C25.94 60.9946 25.58 60.7646 25.58 60.0846V57.8746H24.79V60.1746C24.79 61.1446 25.26 61.7046 26.16 61.7046C26.68 61.7046 27.03 61.4946 27.27 61.1546V61.6046H28.06V57.8646H27.27V60.0246L27.28 60.0346Z" fill="white"/>
<path id="Vector_65" d="M30.1796 60.3343V58.5143H31.1196V57.8743H30.1796V56.7543H29.3896V57.8743H28.7596V58.5143H29.3896V60.4243C29.3896 61.2343 29.7696 61.7243 30.6096 61.7243C30.8296 61.7243 31.0596 61.6943 31.1996 61.6543V60.9843C31.0796 61.0143 30.8796 61.0343 30.7396 61.0343C30.3196 61.0343 30.1796 60.8443 30.1796 60.3343Z" fill="white"/>
<path id="Vector_66" d="M33.88 57.7746C33.35 57.7746 32.96 57.9946 32.71 58.3546V56.3746H31.92V61.6146H32.71V59.4546C32.73 58.8346 33.13 58.4946 33.62 58.4946C34.07 58.4946 34.43 58.7746 34.43 59.4546V61.6046H35.22V59.3046C35.22 58.3346 34.78 57.7746 33.87 57.7746" fill="white"/>
<path id="Vector_67" d="M38.6897 59.9948C38.6897 60.6848 38.3197 61.0548 37.7697 61.0548C37.2197 61.0548 36.8497 60.6848 36.8497 59.9948V59.4948C36.8497 58.8048 37.2097 58.4248 37.7697 58.4248C38.3297 58.4248 38.6897 58.8048 38.6897 59.4948V59.9948ZM37.7697 57.7748C36.8097 57.7748 36.0497 58.3648 36.0497 59.5148V59.9748C36.0497 61.1248 36.8097 61.7148 37.7697 61.7148C38.7297 61.7148 39.4897 61.1248 39.4897 59.9748V59.5148C39.4897 58.3648 38.7297 57.7748 37.7697 57.7748Z" fill="white"/>
<path id="Vector_68" d="M41.16 58.445V57.865H40.37V61.605H41.16V59.665C41.18 59.005 41.61 58.525 42.15 58.525C42.21 58.525 42.27 58.525 42.32 58.535V57.765C41.79 57.765 41.41 58.045 41.16 58.435" fill="white"/>
<path id="Vector_69" d="M43.7799 57.8746H42.9899V61.6146H43.7799V57.8746Z" fill="white"/>
<path id="Vector_70" d="M43.7996 56.3344H42.9696V57.1643H43.7996V56.3344Z" fill="white"/>
<path id="Vector_71" d="M45.8798 60.3343V58.5143H46.8198V57.8743H45.8798V56.7543H45.0898V57.8743H44.4598V58.5143H45.0898V60.4243C45.0898 61.2343 45.4698 61.7243 46.3098 61.7243C46.5298 61.7243 46.7598 61.6943 46.8998 61.6543V60.9843C46.7798 61.0143 46.5798 61.0343 46.4398 61.0343C46.0198 61.0343 45.8798 60.8443 45.8798 60.3343Z" fill="white"/>
<path id="Vector_72" d="M49.0896 60.8044L48.0596 57.8744H47.2196L48.6996 61.7744L48.1996 63.1544H49.0296L49.5296 61.6144H49.5396L50.9396 57.8744H50.1196L49.0896 60.8044Z" fill="white"/>
<path id="Vector_73" d="M55.3996 59.9948C55.3996 60.6848 55.0296 61.0548 54.4796 61.0548C53.9296 61.0548 53.5596 60.6848 53.5596 59.9948V59.4948C53.5596 58.8048 53.9196 58.4248 54.4796 58.4248C55.0396 58.4248 55.3996 58.8048 55.3996 59.4948V59.9948ZM54.4796 57.7748C53.5196 57.7748 52.7596 58.3648 52.7596 59.5148V59.9748C52.7596 61.1248 53.5196 61.7148 54.4796 61.7148C55.4396 61.7148 56.1996 61.1248 56.1996 59.9748V59.5148C56.1996 58.3648 55.4396 57.7748 54.4796 57.7748Z" fill="white"/>
<path id="Vector_74" d="M62.06 59.6946L62.89 57.3246L63.67 59.6946H62.07H62.06ZM62.49 56.3646L60.53 61.6046H61.39L61.81 60.3946H63.9L64.3 61.6046H65.25L63.38 56.3646H62.49Z" fill="white"/>
<path id="Vector_75" d="M65.66 59.515V59.975C65.66 61.055 66.31 61.715 67.38 61.715C67.86 61.715 68.25 61.595 68.53 61.405V60.715C68.13 60.965 67.79 61.045 67.44 61.045C66.83 61.045 66.47 60.675 66.47 60.005V59.485C66.47 58.785 66.84 58.435 67.46 58.435C67.81 58.435 68.18 58.515 68.55 58.765V58.015C68.22 57.835 67.83 57.765 67.44 57.765C66.24 57.765 65.67 58.495 65.67 59.505" fill="white"/>
<path id="Vector_76" d="M69.2098 59.515V59.975C69.2098 61.055 69.8598 61.715 70.9298 61.715C71.4098 61.715 71.7998 61.595 72.0798 61.405V60.715C71.6798 60.965 71.3398 61.045 70.9898 61.045C70.3798 61.045 70.0198 60.675 70.0198 60.005V59.485C70.0198 58.785 70.3898 58.435 71.0098 58.435C71.3598 58.435 71.7298 58.515 72.0998 58.765V58.015C71.7698 57.835 71.3898 57.765 70.9898 57.765C69.7898 57.765 69.2198 58.495 69.2198 59.505" fill="white"/>
<path id="Vector_77" d="M73.7098 58.445V57.865H72.9198V61.605H73.7098V59.665C73.7298 59.005 74.1598 58.525 74.6998 58.525C74.7598 58.525 74.8198 58.525 74.8698 58.535V57.765C74.3398 57.765 73.9598 58.045 73.7098 58.435" fill="white"/>
<path id="Vector_78" d="M77.8599 59.4545H76.1699C76.1699 58.7945 76.4799 58.4245 77.0199 58.4245C77.5599 58.4245 77.8699 58.7545 77.8699 59.4345V59.4545H77.8599ZM77.0099 57.7745C76.0499 57.7745 75.3699 58.4345 75.3699 59.5145V59.9745C75.3699 61.1045 76.0699 61.7145 77.1399 61.7145C77.7399 61.7145 78.1299 61.6245 78.5699 61.3845V60.7245C78.0799 61.0045 77.7199 61.0445 77.2399 61.0445C76.6099 61.0445 76.1799 60.7145 76.1599 60.0545H78.6499V59.4645C78.6499 58.3245 77.9599 57.7745 76.9999 57.7745" fill="white"/>
<path id="Vector_79" d="M82.0002 60.0644C81.9802 60.5944 81.5802 61.0544 81.0502 61.0544C80.5202 61.0544 80.1702 60.6844 80.1702 60.0244V59.4644C80.1702 58.7944 80.5202 58.4244 81.0702 58.4244C81.5202 58.4244 81.9402 58.7944 82.0102 59.3244V60.0644H82.0002ZM82.0002 58.3344C81.7602 58.0044 81.4002 57.7744 80.8802 57.7744C79.8702 57.7744 79.3602 58.4744 79.3602 59.5044V59.9944C79.3602 61.0944 79.8902 61.7244 80.8802 61.7244C81.4002 61.7244 81.7502 61.4644 82.0002 61.1044V61.6144H82.7902V56.3744H82.0002V58.3344Z" fill="white"/>
<path id="Vector_80" d="M84.62 57.8746H83.83V61.6146H84.62V57.8746Z" fill="white"/>
<path id="Vector_81" d="M84.6404 56.3344H83.8104V57.1643H84.6404V56.3344Z" fill="white"/>
<path id="Vector_82" d="M86.7304 60.3343V58.5143H87.6704V57.8743H86.7304V56.7543H85.9404V57.8743H85.3104V58.5143H85.9404V60.4243C85.9404 61.2343 86.3204 61.7243 87.1604 61.7243C87.3804 61.7243 87.6104 61.6943 87.7504 61.6543V60.9843C87.6304 61.0143 87.4304 61.0343 87.2904 61.0343C86.8704 61.0343 86.7304 60.8443 86.7304 60.3343Z" fill="white"/>
<path id="Vector_83" d="M90.7897 59.4548H89.0997C89.0997 58.7948 89.4097 58.4248 89.9497 58.4248C90.4897 58.4248 90.7997 58.7548 90.7997 59.4348V59.4548H90.7897ZM89.9397 57.7748C88.9797 57.7748 88.2997 58.4348 88.2997 59.5148V59.9748C88.2997 61.1048 88.9997 61.7148 90.0697 61.7148C90.6697 61.7148 91.0597 61.6248 91.4997 61.3848V60.7248C91.0097 61.0048 90.6497 61.0448 90.1697 61.0448C89.5397 61.0448 89.1097 60.7148 89.0897 60.0548H91.5797V59.4648C91.5797 58.3248 90.8897 57.7748 89.9297 57.7748" fill="white"/>
<path id="Vector_84" d="M94.92 60.0646C94.9 60.5946 94.5 61.0546 93.97 61.0546C93.44 61.0546 93.09 60.6846 93.09 60.0246V59.4646C93.09 58.7946 93.44 58.4246 93.99 58.4246C94.44 58.4246 94.86 58.7946 94.93 59.3246V60.0646H94.92ZM94.92 58.3346C94.68 58.0046 94.32 57.7746 93.8 57.7746C92.79 57.7746 92.28 58.4746 92.28 59.5046V59.9946C92.28 61.0946 92.81 61.7246 93.8 61.7246C94.32 61.7246 94.67 61.4646 94.92 61.1046V61.6146H95.71V56.3746H94.92V58.3346Z" fill="white"/>
<path id="Vector_85" d="M99.7904 60.6244L98.4804 56.3744H97.5604L99.3004 61.6144H100.18L102.04 56.3744H101.17L99.7904 60.6244Z" fill="white"/>
<path id="Vector_86" d="M104.42 60.2645C104.39 60.9145 103.91 61.0945 103.48 61.0945C103.05 61.0945 102.85 60.9345 102.85 60.6045C102.85 60.1745 103.05 60.0445 103.69 60.0445H104.42V60.2645ZM103.65 57.7745C102.97 57.7745 102.61 57.9245 102.28 58.1745V58.9145C102.68 58.5845 103.02 58.4745 103.5 58.4745C104.28 58.4745 104.42 58.8045 104.42 59.4045V59.4545H103.65C102.59 59.4545 102.07 59.8045 102.07 60.6245C102.07 61.3045 102.49 61.7145 103.32 61.7145C103.81 61.7145 104.18 61.5445 104.42 61.2045V61.6145H105.21V59.2845C105.21 58.2245 104.8 57.7745 103.65 57.7745Z" fill="white"/>
<path id="Vector_87" d="M106.98 60.4644V56.3744H106.19V60.6044C106.19 61.3544 106.45 61.7144 107.19 61.7144C107.37 61.7144 107.56 61.6744 107.68 61.6344V60.9744C107.6 61.0044 107.49 61.0344 107.33 61.0344C107.05 61.0344 106.98 60.8844 106.98 60.4544" fill="white"/>
<path id="Vector_88" d="M110.76 60.0346C110.74 60.6546 110.36 60.9946 109.87 60.9946C109.42 60.9946 109.06 60.7646 109.06 60.0846V57.8746H108.27V60.1746C108.27 61.1446 108.74 61.7046 109.64 61.7046C110.16 61.7046 110.51 61.4946 110.75 61.1546V61.6046H111.54V57.8646H110.75V60.0246L110.76 60.0346Z" fill="white"/>
<path id="Vector_89" d="M114.91 59.4545H113.22C113.22 58.7945 113.53 58.4245 114.07 58.4245C114.61 58.4245 114.92 58.7545 114.92 59.4345V59.4545H114.91ZM114.06 57.7745C113.1 57.7745 112.42 58.4345 112.42 59.5145V59.9745C112.42 61.1045 113.12 61.7145 114.19 61.7145C114.79 61.7145 115.18 61.6245 115.62 61.3845V60.7245C115.13 61.0045 114.77 61.0445 114.29 61.0445C113.66 61.0445 113.23 60.7145 113.21 60.0545H115.7V59.4645C115.7 58.3245 115.01 57.7745 114.05 57.7745" fill="white"/>
<path id="Vector_90" d="M117.37 58.445V57.865H116.58V61.605H117.37V59.665C117.39 59.005 117.82 58.525 118.36 58.525C118.42 58.525 118.48 58.525 118.53 58.535V57.765C118 57.765 117.62 58.045 117.37 58.435" fill="white"/>
<path id="Vector_91" d="M120.86 59.4045L120.42 59.3645C120.05 59.3345 119.72 59.2745 119.72 58.9245C119.72 58.5945 120 58.4345 120.51 58.4345C120.9 58.4345 121.41 58.5645 121.82 58.7945V58.0545C121.5 57.8845 121 57.7745 120.45 57.7745C119.7 57.7745 118.96 58.1445 118.96 58.9245C118.96 59.7045 119.52 59.9845 120.11 60.0245L120.53 60.0645C120.95 60.0845 121.22 60.2145 121.22 60.5645C121.22 60.9145 120.88 61.0645 120.38 61.0645C119.88 61.0645 119.44 60.9145 119.01 60.7145V61.4345C119.35 61.6145 119.93 61.7245 120.35 61.7245C121.11 61.7245 121.98 61.3845 121.98 60.5145C121.98 59.7545 121.5 59.4845 120.84 59.4245" fill="white"/>
<path id="Vector_92" d="M57.3398 57.4449V57.7649H56.7098V58.4049H57.3398V61.6149H58.1298V58.4049H59.0698V57.7649H58.1298V57.5349C58.1298 57.0249 58.2698 56.8349 58.6898 56.8349C58.8298 56.8349 59.0298 56.8449 59.1498 56.8849V56.2149C59.0098 56.1849 58.7798 56.1449 58.5598 56.1449C57.7198 56.1449 57.3398 56.6349 57.3398 57.4449Z" fill="white"/>
</g>
</g>
</g>
<defs>
<clipPath id="clip0_1_1365">
<rect width="121.92" height="62.31" fill="white" transform="translate(0.0799561 0.844971)"/>
</clipPath>
</defs>
</svg>
